<svg xmlns="http://www.w3.org/2000/svg" viewBox="0 0 226.77165 141.73228"><title>BitBucket</title><g id="ead8f050-15e8-460a-b0ef-fe47532a0d77" data-name="Bitbucket"><g id="babcef33-124d-4c0b-b556-84bbb13af96a" data-name="katman 37"><path d="M169.23942,22.65223a8.31569,8.31569,0,0,0-1.17117-.14763c-1.36677-.16926-7.03317-1.25816-13.02445-2.41-2.4298-.46641-5.10362-.98076-7.96973-1.52615-.24449-.047-.49085-.08181-.73816-.10626a10.0881,10.0881,0,0,0-2.28781-.26611,9.6725,9.6725,0,0,0-5.33241,1.5714c-3.00557-3.39316-6.356-5.65453-9.93612-6.48084q-.2003-.04655-.40246-.08181c-.56044-.10061-57.05-10.0107-61.90116-10.0107q-.2151,0-.4302.01128C47.03237,4.20587,38.52149,37.81592,38.52149,70.68124c0,33.59218,8.64394,67.4881,27.95446,67.4881,4.774,0,59.31056-9.55559,61.817-9.9966,3.85369-.62667,7.47341-3.01181,10.69714-6.75871a10.69524,10.69524,0,0,0,5.97013,1.75335h.58159a8.13577,8.13577,0,0,0,1.53226-.14481c2.84495-.54162,5.5009-1.05222,7.9166-1.5158,6.0162-1.1566,11.70658-2.2502,13.07758-2.41946a8.18808,8.18808,0,0,0,1.17117-.14763c15.30709-3.0617,22.27913-27.103,22.27913-48.14372S184.54651,25.71393,169.23942,22.65223Z" style="fill:#fff;stroke:#225182;stroke-miterlimit:10;stroke-width:0.9628932877272902px"/></g><path d="M46.70976,70.68161h0c0,32.55641,8.72047,59.29917,19.76639,59.29917,2.90682,0,44.18371-6.97637,60.46191-9.8832,7.55773-1.16272,18.02229-20.34775,18.02229-49.416h0c0-29.06822-10.46456-47.67189-18.02229-49.416-16.2782-2.90682-57.55509-9.88319-60.46191-9.88319C55.43023,11.9638,46.70976,38.1252,46.70976,70.68161Zm84.87921,0A18.60366,18.60366,0,1,1,112.98531,52.078,18.73249,18.73249,0,0,1,131.589,70.68161Zm-59.29917,0c0,20.92912-3.48819,37.78869-8.1391,37.78869s-8.13911-16.85957-8.13911-37.78869,3.48819-37.78869,8.13911-37.78869,8.1391,16.85957,8.1391,37.78869Z" style="fill:#225182"/><path d="M142.6349,27.77467a2.54634,2.54634,0,0,0,.58136,1.74409s11.62729,14.53411,11.62729,40.69552-11.62729,40.69551-11.62729,40.69551a5.85606,5.85606,0,0,0-.58136,1.74409,2.12953,2.12953,0,0,0,2.32545,2.32546h.58137c12.20865-2.32546,20.92912-4.06955,22.09184-4.06955,8.72048-1.7441,15.69685-19.185,15.69685-40.11415h0c0-20.92912-6.97637-38.37005-15.69685-40.11415-1.16272,0-9.88319-1.74409-22.09184-4.06955h-.58137c-1.16273-.58136-2.32545,0-2.32545,1.16273Z" style="fill:#225182"/><circle cx="112.40397" cy="70.68161" r="9.30183" style="fill:#225182"/></g></svg>