<svg xmlns="http://www.w3.org/2000/svg" viewBox="0 0 226.77165 141.73228"><title>Docker</title><g id="a2cbfe78-3bc2-4a90-97f7-713a738f96cf" data-name="Docker"><g id="b1c6686b-2288-4003-9d49-5fd96dec2b50" data-name="katman 9"><path d="M174.15747,95.65769h-.3979a18.5961,18.5961,0,0,0-10.76739,3.433,22.05423,22.05423,0,0,0-1.87495,1.48049,18.81573,18.81573,0,0,0-4.463-3.06175,20.08574,20.08574,0,0,0-8.93206-2.17639,18.29592,18.29592,0,0,0-9.249,2.5183l-.41943.24288a9.70877,9.70877,0,0,0-4.52158-2.26338c-.01895-.00344-.11972-.02411-.1378-.02756a7.53962,7.53962,0,0,0-1.471-.14555s-.8268.00086-.8802.00172a9.507,9.507,0,0,0-1.36546-3.36088,63.68846,63.68846,0,0,0,27.49251-22.2261h18.29469a7.49969,7.49969,0,0,0,1.84395-14.76921c-.26925-.06831-.56988-.14-.88386-.214a21.49156,21.49156,0,0,0,5.23749-6.63127l.85609-1.67084a7.49981,7.49981,0,0,0-2.92654-9.916l-1.62605-.93833a23.87856,23.87856,0,0,0-12.3099-3.06521,29.28969,29.28969,0,0,0-7.91492-9.53838l-1.48394-1.19284a7.50049,7.50049,0,0,0-10.37207.93963l-1.24538,1.44045C139.38349,30.59472,139.71249,39.06,139.939,41.512q.11757,1.27056.35312,2.49117-.41471.05685-.82853.09388V39.55649a7.49985,7.49985,0,0,0-7.4998-7.4998h-4.345V15.866a7.49985,7.49985,0,0,0-7.4998-7.4998H105.90441a7.49958,7.49958,0,0,0-7.4998,7.4998v4.34545H82.21348a7.49958,7.49958,0,0,0-7.4998,7.4998v4.34545h-4.345a7.49958,7.49958,0,0,0-7.4998,7.4998v4.609H60.23945a7.49786,7.49786,0,0,0-7.23555,5.5434,7.49076,7.49076,0,0,0-8.30879,4.90317c-.61536.16666-1.26173.31824-1.68332.41685-.41254.09646-.79709.18732-1.13943.27388A7.49993,7.49993,0,0,0,43.7163,70.07243H54.48262a38.71222,38.71222,0,0,0,1.49018,3.89889q.04974.10853.10249.217l1.06451,2.166q.12789.261.276.51073l.11239.19033a41.7304,41.7304,0,0,0,9.31866,11.00327c-.31446-.03116-.63334-.049-.95717-.049h-.31953a9.26935,9.26935,0,0,0-9.14651,7.49032c-.08484-.00086-1.05073-.00172-1.05073-.00172a18.4046,18.4046,0,0,0-9.48327,2.58807,18.812,18.812,0,0,0-9.5823,16.481v.79579a18.42427,18.42427,0,0,0,2.58634,9.48155,18.81023,18.81023,0,0,0,16.47923,9.584h.79623A18.70777,18.70777,0,0,0,65.646,131.845a20.91133,20.91133,0,0,0,3.25468-2.35811A18.54955,18.54955,0,0,0,81.661,134.42875h.79451a18.72372,18.72372,0,0,0,9.46431-2.57688,20.82723,20.82723,0,0,0,3.21377-2.31418,18.63445,18.63445,0,0,0,12.90029,4.92464q.75059,0,1.52356-.05339a19.90494,19.90494,0,0,0,6.87366-1.57437,9.30028,9.30028,0,0,0,5.13308,1.51666h.31694a9.30153,9.30153,0,0,0,4.82818-1.32547,8.92451,8.92451,0,0,0,4.73259,1.403h.31953a9.12,9.12,0,0,0,6.40428-2.58463c.0379.02067.07579.04134.11455.062a20.28,20.28,0,0,0,9.70977,2.582,18.31416,18.31416,0,0,0,9.25675-2.52175l.28422-.16364a9.24155,9.24155,0,0,0,6.51021,2.626h.31695a9.329,9.329,0,0,0,9.3489-9.50824V115.203a1.63175,1.63175,0,0,1,.0267-.32641c.05771-.05512.1111-.10163.15847-.14039,6.41893-.31177,9.77265-4.96857,9.77265-9.57111A9.40634,9.40634,0,0,0,174.15747,95.65769Z" style="fill:#fff;stroke:#d4ebec;stroke-miterlimit:10;stroke-width:0.8819237351417542px;fill-rule:evenodd"/></g><path d="M63.7209,105.99445V97.51819A1.851,1.851,0,0,1,65.57,95.50983h.31961a1.84869,1.84869,0,0,1,1.84551,2.00836V115.363A11.24611,11.24611,0,0,1,61.839,125.38258a11.072,11.072,0,0,1-5.67,1.54644h-.796a11.25257,11.25257,0,0,1-10.01991-5.89554A11.041,11.041,0,0,1,43.8073,115.363v-.79541a11.25788,11.25788,0,0,1,5.89443-10.023,11.033,11.033,0,0,1,5.67136-1.54644h.796a11.20254,11.20254,0,0,1,7.55184,2.99632ZM47.821,114.96455a7.62326,7.62326,0,0,0,4.27808,7.0136,7.422,7.422,0,0,0,3.59364.93691,7.73476,7.73476,0,0,0,6.95229-4.07,7.53023,7.53023,0,0,0,1.07591-3.96179,7.66671,7.66671,0,0,0-3.48572-6.43072,7.49052,7.49052,0,0,0-4.46452-1.43768,7.63227,7.63227,0,0,0-7.23556,4.717,7.37145,7.37145,0,0,0-.71412,3.2327ZM81.6608,102.99813h.55627A11.38246,11.38246,0,0,1,92.64648,109.314a10.78787,10.78787,0,0,1,1.37581,5.25355v.79541a11.23208,11.23208,0,0,1-5.89776,10.02019,11.10148,11.10148,0,0,1-5.66887,1.54588H81.6608a11.252,11.252,0,0,1-10.01991-5.89554,11.04206,11.04206,0,0,1-1.547-5.67053v-.79541a11.28326,11.28326,0,0,1,5.89332-10.02187,10.9801,10.9801,0,0,1,5.67358-1.54754Zm-7.55322,11.96642a7.72734,7.72734,0,0,0,4.07472,6.87377,7.43455,7.43455,0,0,0,3.95681,1.07674,7.6772,7.6772,0,0,0,6.79443-4.07333,7.46385,7.46385,0,0,0,1.07424-3.95847,7.643,7.643,0,0,0-3.70268-6.57554,7.46739,7.46739,0,0,0-4.24728-1.29286,7.631,7.631,0,0,0-7.235,4.717,7.357,7.357,0,0,0-.71524,3.2327Zm36.60227-7.629a7.51774,7.51774,0,0,0-2.39567-.40312c-3.35366-.12624-5.78012,1.76228-7.20365,4.72087a7.344,7.344,0,0,0-.71579,3.22992c0,3.43827,1.805,5.84532,4.874,7.31269a9.14431,9.14431,0,0,0,3.79368.63782,9.94709,9.94709,0,0,0,3.55674-1.11474l.16591-.07852h.74186l.08185.01665a1.77991,1.77991,0,0,1,1.6022,1.7509v.3973c0,2.44366-4.46646,3.00353-6.17076,3.12227-6.01428.41643-10.51236-2.88674-12.2272-8.62357a10.38748,10.38748,0,0,1-.432-3.02352v-.79429a11.27864,11.27864,0,0,1,5.89332-10.01881,10.98847,10.98847,0,0,1,5.673-1.54866h.79541a10.22007,10.22007,0,0,1,5.87639,1.81417l.14538.10043.09156.1512a2.11507,2.11507,0,0,1,.35484,1.05814v.3973a1.81425,1.81425,0,0,1-1.69209,1.75395l-.07657.0136h-.23721a9.04459,9.04459,0,0,1-2.49527-.872Zm13.01984,2.718c1.55892-1.56113,3.12394-3.1195,4.70616-4.65511.44113-.42808,2.11075-2.24114,2.768-2.24114h.71911l.08184.01665a1.77975,1.77975,0,0,1,1.60165,1.75424v.397c0,.6714-.78626,1.45128-1.21989,1.91071-.9222.97741-1.89323,1.9232-2.83707,2.88063l-4.84933,4.92285q3.132,3.139,6.24511,6.29642c.57291.58318,1.1461,1.16719,1.71013,1.759a4.38224,4.38224,0,0,1,.66113.76184,1.644,1.644,0,0,1,.28992.90722v.415l-.02331.09544a1.897,1.897,0,0,1-1.82165,1.65463h-.31933c-.66418,0-1.4141-.75158-1.86937-1.1805-.9369-.88391-1.84246-1.81332-2.76133-2.71611l-3.08177-3.02517v4.83518a1.85136,1.85136,0,0,1-1.84884,2.00864h-.31628a1.85074,1.85074,0,0,1-1.84884-2.00864V97.59616a1.84772,1.84772,0,0,1,1.84884-2.005h.31628a1.848,1.848,0,0,1,1.84884,2.005v12.45747Zm50.02966-6.89625h.3984a1.90135,1.90135,0,0,1,2.00754,2.00809c0,1.66185-1.58861,2.08716-2.96331,2.08716a7.20724,7.20724,0,0,0-4.76636,2.31549,7.64067,7.64067,0,0,0-2.2281,5.635v9.71779a1.84961,1.84961,0,0,1-1.8494,2.00809h-.31656a1.8495,1.8495,0,0,1-1.84883-2.00809V114.64549a11.27985,11.27985,0,0,1,5.12287-9.42592,11.03993,11.03993,0,0,1,6.44375-2.06219Zm-28.53024,19.258a9.39624,9.39624,0,0,0,4.62516.17616c.76628-.32571,2.72693-1.18076,3.448-1.05564l.11264.01886.10348.05105a2.263,2.263,0,0,1,1.08506.963,1.923,1.923,0,0,1-.75879,2.70223l-.34347.19837c-3.80782,2.19786-7.85757,1.89323-11.65291-.15953a10.80159,10.80159,0,0,1-4.227-4.21232l-.23971-.415a11.35137,11.35137,0,0,1,.64227-12.71189,10.98708,10.98708,0,0,1,3.65-3.30706l.55015-.31738a11.31672,11.31672,0,0,1,11.11191-.11153,10.87254,10.87254,0,0,1,4.69007,4.34827l.19864.34486c.80318,1.39134-.2372,2.604-1.31116,3.43272-1.24625.9616-2.5047,2.11851-3.69935,3.14974q-3.99509,3.44869-7.98492,6.90514Zm-3.44742-2.4212q4.46868-3.83154,8.9293-7.675c1.01515-.87559,2.1285-1.78419,3.13588-2.705a7.93651,7.93651,0,0,0-3.30539-2.19009,7.9163,7.9163,0,0,0-10.58061,7.98048,7.03725,7.03725,0,0,0,1.04261,3.52484,9.35265,9.35265,0,0,0,.77821,1.0648Z" style="fill:#374649;fill-rule:evenodd"/><path d="M120.11885,39.55661H131.964V51.66535h5.9893a25.97345,25.97345,0,0,0,8.22989-1.38025,21.079,21.079,0,0,0,4.0012-1.8075,14.855,14.855,0,0,1-2.77714-7.657c-.34126-3.69574.40422-8.50622,2.90559-11.39877l1.24514-1.44018,1.48373,1.1927c3.73569,3.00132,6.87739,7.19505,7.43116,11.97585a18.10426,18.10426,0,0,1,13.74395,1.27815l1.62661.93857-.85617,1.671c-3.3531,6.54419-10.3631,8.57142-17.21663,8.21269-10.25546,25.54307-32.58276,37.636-59.65451,37.636-13.98615,0-26.81817-5.2283-34.12531-17.63723l-.11985-.20253-1.06453-2.16595A34.35285,34.35285,0,0,1,60.0726,53.4562l.167-1.79085H70.36856V39.55661h11.8449V27.71116h23.6909V15.866h14.21449V39.55661" style="fill:#374649;fill-rule:evenodd"/><path d="M158.4956,44.03611c.79431-6.17242-3.825-11.02091-6.68984-13.32281-3.30122,3.8167-3.8142,13.8197,1.365,18.03119-2.89034,2.5674-8.98119,4.89454-15.21742,4.89454H62.03907a31.99056,31.99056,0,0,0,3.14669,17.6364l.86367,1.57945a29.28837,29.28837,0,0,0,1.78974,2.68587h.00028q4.68134.30047,8.63106.2114h.00112a42.33543,42.33543,0,0,0,12.59425-1.83358.91183.91183,0,1,1,.597,1.72316c-.42531.14732-.86893.28521-1.327.41616l-.00167.00055a39.62389,39.62389,0,0,1-8.70569,1.41826c.20669.00333-.21557.03108-.21668.03135-.11846.00722-.26773.02414-.38674.0308-1.37165.07685-2.85234.09294-4.366.09294-1.65547,0-3.286-.03135-5.10873-.12374l-.04661.0308C75.82908,84.64817,85.71915,88.9121,98.11615,88.9121c26.23722,0,48.49183-11.63072,58.34639-37.74225,6.99169.71745,13.71094-1.06536,16.76747-7.03192-4.86875-2.80961-11.12939-1.91376-14.73441-.10182" style="fill:#229fc8;fill-rule:evenodd"/><path d="M158.4956,44.03611c.79431-6.17242-3.825-11.02091-6.68984-13.32281-3.30122,3.8167-3.8142,13.8197,1.365,18.03119-2.89034,2.5674-8.98119,4.89454-15.21742,4.89454H66.53438c-.30989,9.97,3.39,17.53791,9.93613,22.11312h.00112a42.33543,42.33543,0,0,0,12.59425-1.83358.91183.91183,0,1,1,.597,1.72316c-.42531.14732-.86893.28521-1.327.41616l-.00167.00055a41.66238,41.66238,0,0,1-8.9379,1.48041l-.08546-.08046c8.929,4.58021,21.87647,4.56384,36.72046-1.13832,16.64455-6.39409,32.13247-18.57635,42.93948-32.5098q-.2447.11029-.47525.22584" style="fill:#3ab1da;fill-rule:evenodd"/><path d="M62.18112,61.54877a30.35658,30.35658,0,0,0,3.00464,9.72666l.86367,1.57945a29.23387,29.23387,0,0,0,1.79,2.68587q4.68216.30047,8.63218.2114a42.33543,42.33543,0,0,0,12.59425-1.83358.91183.91183,0,1,1,.597,1.72316c-.42531.14732-.86893.28521-1.327.41616l-.00167.00055a41.661,41.661,0,0,1-8.92237,1.44961c-.11957.00722-.32821.0086-.44889.01526-1.3711.07713-2.83652.124-4.35049.124-1.65519,0-3.34783-.03162-5.17032-.124,6.325,7.10933,16.277,11.38879,28.674,11.38879,22.46158,0,42.00369-8.52564,53.34587-27.36333H62.18112" style="fill:#1c82a6;fill-rule:evenodd"/><path d="M67.21771,61.54877a22.79991,22.79991,0,0,0,9.25392,14.20338,42.33543,42.33543,0,0,0,12.59425-1.83358.91183.91183,0,1,1,.597,1.72316c-.42531.14732-.86893.28521-1.327.41616l-.00167.00055A42.288,42.288,0,0,1,79.35,77.50805c8.92848,4.57938,21.83846,4.51362,36.68134-1.188a96.95394,96.95394,0,0,0,25.37522-14.7713H67.21771" style="fill:#1e91b5;fill-rule:evenodd"/><path d="M72.34281,41.53057H82.60853V51.79686H72.34281Zm.85506.85562H74.008v8.5556h-.81011Zm1.52313,0h.84257v8.5556H74.721Zm1.555,0h.84258v8.5556H76.276Zm1.55587,0h.84257v8.5556H77.8319Zm1.55559,0h.84258v8.5556h-.84258Zm1.55531,0h.81067v8.5556H80.9428Z" style="fill:#26a3c3;fill-rule:evenodd"/><path d="M84.18743,29.6854H94.45426V39.95113H84.18743Zm.85617.85562h.80956v8.55477H85.0436Zm1.52313,0h.842v8.55477h-.842Zm1.55475,0h.84258v8.55477h-.84258Zm1.55559,0h.84258v8.55477h-.84258Zm1.55587,0h.84257v8.55477h-.84257Zm1.555,0h.81123v8.55477H92.788Z" style="fill:#26a3c3;fill-rule:evenodd"/><path d="M84.18743,41.53057H94.45426V51.79686H84.18743Zm.85617.85562h.80956v8.5556H85.0436Zm1.52313,0h.842v8.5556h-.842Zm1.55475,0h.84258v8.5556h-.84258Zm1.55559,0h.84258v8.5556h-.84258Zm1.55587,0h.84257v8.5556h-.84257Zm1.555,0h.81123v8.5556H92.788Z" style="fill:#37bbde;fill-rule:evenodd"/><path d="M96.03316,41.53057h10.26627V51.79686H96.03316Zm.85561.85562h.80956v8.5556h-.80956Zm1.52285,0h.84258v8.5556h-.84258Zm1.55559,0h.84258v8.5556h-.84258Zm1.55559,0h.84258v8.5556h-.84258Zm1.55531,0h.84313v8.5556h-.84313Zm1.55559,0h.81012v8.5556h-.81012Z" style="fill:#26a3c3;fill-rule:evenodd"/><path d="M96.03316,29.6854h10.26627V39.95113H96.03316Zm.85561.85562h.80956v8.55477h-.80956Zm1.52285,0h.84258v8.55477h-.84258Zm1.55559,0h.84258v8.55477h-.84258Zm1.55559,0h.84258v8.55477h-.84258Zm1.55531,0h.84313v8.55477h-.84313Zm1.55559,0h.81012v8.55477h-.81012Z" style="fill:#37bbde;fill-rule:evenodd"/><path d="M107.87861,41.53057h10.266V51.79686h-10.266Zm.85561.85562h.80984v8.5556h-.80984Zm1.52313,0h.84257v8.5556h-.84257Zm1.555,0h.84257v8.5556h-.84257Zm1.55586,0h.84258v8.5556h-.84258Zm1.55559,0h.84258v8.5556h-.84258Zm1.55531,0h.8104v8.5556h-.8104Z" style="fill:#37bbde;fill-rule:evenodd"/><path d="M107.87861,29.6854h10.266V39.95113h-10.266Zm.85561.85562h.80984v8.55477h-.80984Zm1.52313,0h.84257v8.55477h-.84257Zm1.555,0h.84257v8.55477h-.84257Zm1.55586,0h.84258v8.55477h-.84258Zm1.55559,0h.84258v8.55477h-.84258Zm1.55531,0h.8104v8.55477h-.8104Z" style="fill:#26a3c3;fill-rule:evenodd"/><path d="M107.87861,17.84h10.266V28.10623h-10.266Zm.85561.85506h.80984v8.5556h-.80984Zm1.52313,0h.84257v8.5556h-.84257Zm1.555,0h.84257v8.5556h-.84257Zm1.55586,0h.84258v8.5556h-.84258Zm1.55559,0h.84258v8.5556h-.84258Zm1.55531,0h.8104v8.5556h-.8104Z" style="fill:#37bbde;fill-rule:evenodd"/><path d="M119.72378,41.53057h10.26628V51.79686H119.72378Zm.85506.85562h.81067v8.5556h-.81067Zm1.52313,0h.84257v8.5556H122.102Zm1.55586,0h.84258v8.5556h-.84258Zm1.555,0h.84258v8.5556h-.84258Zm1.55614,0h.8423v8.5556h-.8423Zm1.55532,0h.81011v8.5556h-.81011Z" style="fill:#26a3c3;fill-rule:evenodd"/><path d="M93.81144,68.44141a2.83208,2.83208,0,1,1-2.83236,2.83236,2.83234,2.83234,0,0,1,2.83236-2.83236" style="fill:#d4ebec;fill-rule:evenodd"/><path d="M93.81144,69.24487a2.024,2.024,0,0,1,.73438.13733.8274.8274,0,1,0,1.13943,1.11335,2.02879,2.02879,0,1,1-1.87381-1.25068" style="fill:#374649;fill-rule:evenodd"/><path d="M43.7163,62.57251H175.46476c-2.8687-.72772-9.07635-1.71068-8.05261-5.47023-5.2161,6.03592-17.79564,4.23452-20.97036,1.25818-3.53538,5.12759-24.11648,3.1786-25.55194-.816-4.43206,5.2014-18.16575,5.2014-22.59808,0-1.436,3.99455-22.01685,5.94354-25.55251.816-3.17471,2.97634-15.75315,4.77774-20.9698-1.25818,1.02375,3.75955-5.18391,4.74251-8.05316,5.47023" style="fill:#374649;fill-rule:evenodd"/><path d="M101.34025,88.85078c-7.01389-3.32841-10.86388-7.85285-13.006-12.79234a43.42129,43.42129,0,0,1-9.376,1.42325q-2.05622.11529-4.32607.11625-2.61679,0-5.51268-.154c6.4321,6.42822,14.34516,11.3777,28.99661,11.46814q1.62259,0,3.2241-.06132" style="fill:#bdd8d7;fill-rule:evenodd"/><path d="M90.93969,80.61618a24.56547,24.56547,0,0,1-2.60375-4.55829,43.41878,43.41878,0,0,1-9.37765,1.4238c2.49971,1.35695,6.075,2.6143,11.9814,3.13449" style="fill:#d4ebec;fill-rule:evenodd"/></g></svg>