<svg xmlns="http://www.w3.org/2000/svg" viewBox="0 0 226.77165 141.73228"><title>Git</title><g id="ed6e8f68-2349-4542-88fe-e7379a17f54a" data-name="Git"><g id="a6d00790-1aaa-4d36-a737-fbb254947db7" data-name="katman 7"><path d="M216.74055,87.36068l-2.1-6.8397A7.824,7.824,0,0,0,204.41921,75.492c-.33772.12664-.67723.23891-1.01315.335V66.93769h3.75711a7.82147,7.82147,0,0,0,7.82142-7.82142V51.34605a7.82147,7.82147,0,0,0-7.82142-7.82142h-3.75711V39.53129a7.82148,7.82148,0,0,0-7.82142-7.82142h-7.3831a7.81685,7.81685,0,0,0-7.11056,4.57975c-1.10438-7.26118-6.71811-11.97587-14.68127-11.97587-8.86152,0-14.81561,5.89031-14.81561,14.65752a16.19911,16.19911,0,0,0,1.17242,6.15129l-.02813-.0014h-14.2201a35.85173,35.85173,0,0,0-8.08549-.77693c-15.5602,0-25.615,8.98636-25.615,22.8939a21.66852,21.66852,0,0,0,3.28287,11.74874,14.15575,14.15575,0,0,0-3.67134,9.31331,13.68451,13.68451,0,0,0,1.0419,5.32087,15.79424,15.79424,0,0,0-1.897,7.73159c0,7.99926,4.72716,17.53442,27.24832,17.53442,19.20712,0,27.37417-8.97289,28.9103-18.39668h18.79963a7.79645,7.79645,0,0,0,5.899-2.69641,24.05893,24.05893,0,0,0,12.16174,2.79072,38.70794,38.70794,0,0,0,16.09822-3.89813A7.82171,7.82171,0,0,0,216.74055,87.36068Z" style="fill:#fff;stroke:#000;stroke-miterlimit:10;stroke-width:0.9197441339492798px"/><path d="M64.12275,28.20559a13.062,13.062,0,0,0-18.47437-.00179L38.27022,35.582a7.81269,7.81269,0,0,0-1.5103,2.11972A7.81662,7.81662,0,0,0,34.64514,39.207L10.2809,63.56948a13.06418,13.06418,0,0,0,.00135,18.47393l35.5296,35.52691a13.06253,13.06253,0,0,0,18.47482.00269L99.65236,82.20778a13.07965,13.07965,0,0,0-.00045-18.47527Z" style="fill:#fff;stroke:#000;stroke-miterlimit:10;stroke-width:0.9197441339492798px"/></g><path d="M131.13409,59.85541c-4.27521,0-7.45931,2.09922-7.45931,7.15127,0,3.80644,2.09832,6.44944,7.22894,6.44944,4.34844,0,7.30217-2.56264,7.30217-6.60659,0-4.58328-2.643-6.99412-7.0718-6.99412Zm-8.54776,35.67328c-1.01165,1.24113-2.01975,2.56084-2.01975,4.11718,0,3.1064,3.96092,4.04127,9.40227,4.04127,4.50738,0,10.647-.31609,10.647-4.50648,0-2.4912-2.95372-2.64478-6.686-2.87872l-11.34345-.77325Zm23.00208-35.43844a12.32521,12.32521,0,0,1,2.87515,7.84951c0,8.62544-6.76106,13.67571-16.55,13.67571a24.69657,24.69657,0,0,1-6.1405-.69825l-2.56531,4.11807,7.61468.4652c13.44533.85718,21.369,1.24649,21.369,11.57738,0,8.93886-7.84683,13.98733-21.369,13.98733-14.065,0-19.4269-3.57429-19.4269-9.713,0-3.4975,1.55455-5.35831,4.27433-7.92719a5.17755,5.17755,0,0,1-3.41892-5.12527,6.968,6.968,0,0,1,2.25458-4.74221c1.39828-1.47418,2.95194-2.95283,4.81721-4.66185-3.80734-1.86527-6.68339-5.90655-6.68339-11.65774,0-8.93528,5.90656-15.07221,17.79379-15.07221a26.63551,26.63551,0,0,1,7.15125.77683h15.15436v6.603l-7.15037.54467Z" style="fill:#2e2815"/><path d="M166.41,45.969c-4.4306,0-6.99412-2.5662-6.99412-6.99768,0-4.42523,2.56352-6.83607,6.99412-6.83607,4.50738,0,7.07178,2.41084,7.07178,6.83607,0,4.43148-2.5644,6.99768-7.07178,6.99768ZM156.38361,92.66872v-6.136l3.96449-.542c1.08846-.15715,1.24293-.3893,1.24293-1.55722V61.58675c0-.85272-.23216-1.39918-1.01166-1.63044l-4.19576-1.47775.85451-6.29229h16.08744v32.2472c0,1.2456.075,1.40007,1.24381,1.55722l3.96361.542v6.136Z" style="fill:#2e2815"/><path d="M209.26314,89.65606a31.08235,31.08235,0,0,1-12.66941,3.1073c-9.24691,0-12.74262-3.72608-12.74262-12.51136V59.89291c0-.4652,0-.77682-.62415-.77682h-5.43867V52.19966c6.84053-.77861,9.55853-4.19843,10.413-12.66851h7.38341V50.56922c0,.542,0,.77683.62236.77683H207.163v7.77H195.58474v18.5715c0,4.58506,1.08935,6.37086,5.28331,6.37086a18.51378,18.51378,0,0,0,6.295-1.242l2.10012,6.83964" style="fill:#2e2815"/><path d="M94.12147,69.263,58.59016,33.73442a5.24041,5.24041,0,0,0-7.41109,0L43.801,41.11248l9.35941,9.35941a6.22381,6.22381,0,0,1,7.88166,7.93434l9.0201,9.02011a6.2288,6.2288,0,1,1-3.735,3.51625l-8.412-8.412-.00089,22.13686a6.30054,6.30054,0,0,1,1.64919,1.17953,6.23073,6.23073,0,1,1-6.77714-1.36079V62.143a6.16014,6.16014,0,0,1-2.04117-1.36078,6.23426,6.23426,0,0,1-1.34382-6.81732l-9.22548-9.22726L15.813,69.09875a5.242,5.242,0,0,0,0,7.41378L51.34425,112.042a5.2415,5.2415,0,0,0,7.412,0L94.12147,76.67771a5.24473,5.24473,0,0,0,0-7.41467" style="fill:#df4c36"/></g></svg>