<svg xmlns="http://www.w3.org/2000/svg" viewBox="0 0 226.77165 141.73228"><title>Gopher</title><g id="b6d00d55-ff5d-449f-987e-814ec1ebc86b" data-name="Gopher"><g id="ab0a3055-c5bd-4a71-87ba-96e3067abe13" data-name="katman 12"><path d="M200.72685,107.57a27.9878,27.9878,0,0,0-3.64279-5.0014c-.09247-.11077-.1886-.21789-.28747-.32317-.54656-.64635-.91367-1.10684-1.15811-1.43276a75.208,75.208,0,0,0,4.19209-22.67979c.41564-11.20623-1.073-21.82791-4.301-30.70418q-.35979-.99561-.76078-1.98206c.06225-.05585.12176-.11032.17669-.16205a18.19189,18.19189,0,0,0,5.277-6.52022c.01373-.0325.02838-.065.04211-.098a11.76157,11.76157,0,0,0-2.03517-12.46367,12.08208,12.08208,0,0,0-10.03118-5.39781,14.90089,14.90089,0,0,0-7.63713,2.2796,22.485,22.485,0,0,0-2.15876,1.48266,41.01888,41.01888,0,0,0-4.16188-2.42334c-9.405-4.70294-20.54483-6.89329-35.05649-6.89329l-1.08579.00412c-2.29059.02243-4.42646.07553-6.89832.18036a10.44829,10.44829,0,0,0-2.06172-3.9916,10.69972,10.69972,0,0,0-4.6947-3.23814A9.94584,9.94584,0,0,0,118.66746,6.394a11.14686,11.14686,0,0,0-4.7359,1.094,15.62675,15.62675,0,0,0-5.72877,4.7208,20.2799,20.2799,0,0,0-2.41372,4.49741c-1.105.01557-2.27045.02518-3.52653.02518H98.62937c-11.474.04669-16.72855.18585-23.36459.87339-3.14155.32638-6.10229.753-8.93761,1.29a17.623,17.623,0,0,0-13.7527-6.55959,19.97561,19.97561,0,0,0-9.67962,2.58859c-.04578.02563-.0911.05127-.13641.07782a20.33106,20.33106,0,0,0-9.35417,11.99814,19.17716,19.17716,0,0,0,.45775,11.371,45.997,45.997,0,0,0-4.16783,8.408c-2.801,7.5909-3.998,16.09685-4.00075,28.43281q-.00343.357.02517.71958c1.04368,13.09538,3.19191,22.39141,6.95692,30.121a43.95549,43.95549,0,0,0,2.96852,5.21105,19.33552,19.33552,0,0,0-.05218,11.49141,20.632,20.632,0,0,0,9.65765,11.90155,19.31719,19.31719,0,0,0,9.36378,2.48834,17.22441,17.22441,0,0,0,6.18881-1.13156,17.42346,17.42346,0,0,0,7.54238-5.65873,80.12974,80.12974,0,0,0,10.79105.877c.7649.01282,1.50966.02014,2.25031.02014,4.51892,0,8.82774-.24719,17.71271-1.01529,2.90719-.24444,5.15017-.42571,7.05213-.56029a20.03157,20.03157,0,0,0,2.6188,4.98858,14.901,14.901,0,0,0,5.94574,4.80914,10.96286,10.96286,0,0,0,4.49238.98692,9.90106,9.90106,0,0,0,5.84641-1.89235,10.689,10.689,0,0,0,4.58942-3.19877,10.52173,10.52173,0,0,0,2.30341-5.12866c4.88788.38177,7.83031.5786,11.14993.66466,1.43276.04486,2.83531.06775,4.16829.06775,13.26565,0,22.732-2.19538,30.6822-7.10889q.65093-.401,1.28171-.82579a16.93922,16.93922,0,0,0,3.17955,2.36566,13.20887,13.20887,0,0,0,6.54036,1.77242,13.35367,13.35367,0,0,0,7.01734-2.048,8.45558,8.45558,0,0,0,1.49685-1.17917c.02838-.02838.07415-.07324.08972-.08881a11.366,11.366,0,0,0,1.528-1.88227C203.00188,118.2228,203.6528,112.65837,200.72685,107.57Z" style="fill:#fff;stroke:#010101;stroke-miterlimit:10;stroke-width:0.9374762773513794px"/></g><g id="b4122a8f-ed32-446d-b3fd-fd442ac4f51d" data-name="katman 11"><path d="M120.77366,130.96907c4.75475-.23079,2.53912-4.98554,1.06171-7.109-1.43106-2.0312-.23079-2.63134-3.00069-2.81578a43.73971,43.73971,0,0,0-5.493-.23079,13.40355,13.40355,0,0,0,2.30786,8.95572c.92315,1.33838,3.97018,3.73892,5.12411,1.20027M179.215,36.19791c2.262-3.6467,9.09427-10.34043,12.418-4.847,4.80109,5.26268-5.309,8.21655-6.69373,12.83321C182.21565,42.19928,179.72288,39.70651,179.215,36.19791Zm7.7091,65.27361c.64648,4.29318,4.524,6.69373,6.50928,10.29409,1.98485,3.37-.64647,4.66253-1.20027,4.93966-.23078.50745.23078.46157-.60014,1.2925-4.93966,3.13878-8.54-3.23148-10.98692-6.55517-.92315-4.61619,3.09291-7.52465,6.278-9.97108ZM120.17352,15.93274c4.75476.23078,2.53912,4.98553,1.06171,7.10895-1.43106,2.0312-.23078,2.63134-3.00068,2.81579a43.56465,43.56465,0,0,1-5.493.23078,13.403,13.403,0,0,1,2.30787-8.95525c.92314-1.293,3.97017-3.7394,5.1241-1.20027" style="fill:#f6d2a3"/><path d="M62.19379,28.53515c-5.81647-16.4799-28.3895-3.60082-18.41889,10.75613-8.07844,9.41683-9.55585,22.38813-9.55585,36.00638,1.06264,13.34019,3.50907,26.03529,11.264,34.89832-9.23284,14.31107,12.925,27.51316,18.51111,10.71025,18.27985,4.70841,36.92952-.646,55.53285.09269,16.71115.69235,39.09928,5.07776,54.10225-4.201,12.83319-7.894,17.40352-24.88136,17.91142-38.869.646-17.86462-3.73939-39.51451-21.05022-48.1931-16.4799-8.30924-37.0222-6.00137-54.79461-4.93966-17.95731,1.06171-36.19129-.92315-53.50258,3.73939Z" style="fill:#77c9d7"/><path d="M117.35775,14.68658a7.71666,7.71666,0,0,0-2.67768,2.1693,13.99481,13.99481,0,0,0-2.44643,7.66322c-2.86212.09222-6.00137.18444-9.97108.18444H98.66173c-11.3558.04635-16.34134.18491-22.5735.83092A91.38875,91.38875,0,0,0,62.42457,27.935c-1.43106-3.73939-3.78527-6.18582-6.8323-7.1553a11.10055,11.10055,0,0,0-8.81669,1.10758,12.22279,12.22279,0,0,0-5.6779,7.20165,12.16076,12.16076,0,0,0,2.03074,10.10964,35.21154,35.21154,0,0,0-5.955,10.34044C34.63521,56.4172,33.66572,64.403,33.66572,75.25131h.46157l-.46157.04635c.92315,11.58658,2.72356,20.173,6.18582,27.28191a33.91563,33.91563,0,0,0,4.98554,7.61641,12.20726,12.20726,0,0,0-1.61551,10.24821,12.59337,12.59337,0,0,0,5.90869,7.24753,10.49624,10.49624,0,0,0,8.81715.87726c2.76944-1.06171,4.9392-3.50813,6.278-7.1553A66.81227,66.81227,0,0,0,79.27429,123.26a168.97223,168.97223,0,0,0,19.15712-.969c7.15531-.60014,10.43265-.83093,14.40283-.92361A13.819,13.819,0,0,0,115.23478,130a6.881,6.881,0,0,0,2.67721,2.16929,2.21,2.21,0,0,0,3.13926-.83092c2.21564-.18444,3.231-1.43106,3.04656-3.32369a10.09038,10.09038,0,0,0-1.89263-4.47763,5.19358,5.19358,0,0,1-.5538-.96949c-.04634-.13856-.09268-.23078-.139-.36935,0,0-.09176-.27666-.1381-.36935a.93212.93212,0,0,0-.18491-.36889c2.16977.09223,4.43175.27667,9.6022.69236,5.816.46158,9.00159.69236,12.55607.78458,13.20209.4157,22.80381-1.15393,30.42069-5.86234a30.01737,30.01737,0,0,0,6.46295-5.40123c.27666.41569,1.56963,2.16976,1.98485,2.72355a14.68526,14.68526,0,0,0,4.10828,4.0624,5.05113,5.05113,0,0,0,5.49345-.13857l.04635-.04634.04634-.04634c.50746-.50745.646-.78458.646-1.15393v-.13764c.09269-.04634.13857-.09269.23078-.139a6.69933,6.69933,0,0,0,.60014-.41523c1.33884-1.15393,1.66185-2.76944.36935-4.9392a20.30642,20.30642,0,0,0-2.7699-3.73892l-.09269-.09269c-2.40007-2.81578-3.27689-4.20049-3.60036-6.278l-.13857-.7387c.139-.27666.23125-.55379.36935-.8768a65.90581,65.90581,0,0,0,4.33953-21.88114c.36935-9.97109-.87727-19.57282-3.83161-27.69714A49.42759,49.42759,0,0,0,185.309,43.9997c.46158-1.20028,1.43107-2.21518,3.693-4.15462a.48722.48722,0,0,1,.18444-.1381c.0927-.09269.139-.09269.18491-.139.13857-.09176.23078-.23032.36934-.32255a10.5844,10.5844,0,0,0,3.18513-3.6935c.646-1.52282.323-3.00023-1.0617-4.52351-1.66185-2.67768-4.24685-2.86212-7.20166-1.10759a19.763,19.763,0,0,0-5.63156,5.44665,31.91371,31.91371,0,0,0-8.35557-6.09312c-8.863-4.43175-19.20347-6.13994-32.49825-6.04772-4.70841.04635-8.81668.23125-16.66481.7387H121.282a2.75693,2.75693,0,0,1,.41523-.69236,10.64788,10.64788,0,0,0,1.89264-4.47763c.1849-1.89263-.83093-3.13925-3.04657-3.32369a2.29722,2.29722,0,0,0-3.18513-.78458Zm-75.291,14.679a11.0694,11.0694,0,0,1,5.26267-6.64739,10.09164,10.09164,0,0,1,8.07845-1.06171c2.72356.8768,4.89332,3.09291,6.18582,6.55517a75.09223,75.09223,0,0,0-7.29387,2.44643,3.38953,3.38953,0,0,0-4.61573-.92315c-2.03166,1.06125-2.26244,2.908-1.66231,4.8011a34.49836,34.49836,0,0,0-4.24684,3.92337,11.23532,11.23532,0,0,1-1.70819-9.09382Zm15.60311,98.41786a9.41125,9.41125,0,0,1-8.03211-.83093,11.6173,11.6173,0,0,1-5.44711-6.73961,11.47863,11.47863,0,0,1,1.38472-9.27872,30.37323,30.37323,0,0,0,5.49345,4.8011c-1.24661,2.40055-1.4774,4.847,1.06125,6.23169,2.724,1.43106,4.43175-.23078,5.72424-2.585.78505.323,1.616.64648,2.44689.92315,1.01537.32347,2.07708.64648,3.13879.92314-1.29249,3.37-3.27735,5.58568-5.77012,6.55517Zm62.9194-5.58568c0,.04634.09222.32347.1381.32347a1.65712,1.65712,0,0,0,.18491.41523,4.5998,4.5998,0,0,0,.646,1.10759,8.95968,8.95968,0,0,1,1.70819,4.06286c.13856,1.38472-.46158,2.1693-2.12342,2.30786a2.8291,2.8291,0,0,0-1.10759-1.75407l-.55426.7387c.36935.27667.50791.5538.78458,1.38472,0,.04635,0,.04635.04634.09269-.41569.73824-1.06171.8768-1.98485.46111a6.61244,6.61244,0,0,1-2.30787-1.89264,12.59639,12.59639,0,0,1-2.2161-8.12432c1.15394,0,2.30786-.04635,3.41545,0a1.01432,1.01432,0,0,1,.36982.04634c.646.04588.92314.04588,1.24662.09222,1.33837.1381,1.52281.23079,1.75407.73824ZM190.24776,108.257l.09269.09268a20.51722,20.51722,0,0,1,2.67722,3.60036c1.0617,1.75407.83092,2.95435-.18445,3.78527a2.81193,2.81193,0,0,1-.462.323c-.04635.04634-.1381.09268-.18445.13856h-.04634a6.13047,6.13047,0,0,1-2.72357-1.24662c-.04634-.04634-.04634-.04634-.09222-.04634a9.89747,9.89747,0,0,0-1.66185-.969l-.36935.83092a12.54454,12.54454,0,0,1,1.52328.87727c.04634.04634.04634.04634.09269.04634a7.65146,7.65146,0,0,0,2.76944,1.38472v.1849a1.67461,1.67461,0,0,1-.323.41523c-2.86212,1.80042-5.30855.36936-8.35558-3.69258-.36888-.50791-1.56916-2.2161-1.93852-2.67767a.65485.65485,0,0,0-.09269-.27713,38.77389,38.77389,0,0,0,5.49346-8.63225c.04634,0,.09269-.04634.139-.09222.46111,1.89263,1.4306,3.37,3.64624,5.955Zm-5.03142-77.50667c2.40055-1.43106,4.33907-1.38472,5.67791.41569-.27713.13811-.60015.23079-1.06171.41523-.04634,0-.04634,0-.09269.04635a8.38533,8.38533,0,0,0-3.32322,1.84628l.646.64649a7.28734,7.28734,0,0,1,2.95434-1.66185c.04635,0,.04635,0,.09269-.04635.59968-.23078.969-.36935,1.2925-.50791a2.93754,2.93754,0,0,1,.69235,3.37,10.79488,10.79488,0,0,1-2.95434,3.37,2.57682,2.57682,0,0,1-.36935.27666.64311.64311,0,0,1-.1849.139.48993.48993,0,0,1-.18445.13811c-1.98485,1.70819-3.04657,2.72355-3.64716,3.83161a36.97192,36.97192,0,0,0-5.07776-6.97086,21.58061,21.58061,0,0,1,5.5398-5.30856Zm-14.95662-.646c7.98623,3.96971,13.61779,10.98645,17.03371,20.40374,2.90846,8.03211,4.10874,17.54162,3.73939,27.37413-.60015,16.94148-6.50883,31.621-17.68018,38.49915-7.43243,4.61619-16.89561,6.13994-29.91325,5.72424-3.55448-.13856-6.73961-.323-12.55607-.78458-6.55517-.50791-8.44781-.64648-11.40215-.785-2.12342-.09222-4.29319-.09222-6.60105-.04634-4.0624.09268-7.29386.32347-14.54139.9236a168.15358,168.15358,0,0,1-19.06536.96949A61.87541,61.87541,0,0,1,60.48606,119.382,32.57608,32.57608,0,0,1,40.682,102.16387c-3.41546-6.97039-5.17-15.41819-6.0936-26.91256,0-10.75613.96949-18.60332,3.46226-25.38927a32.44543,32.44543,0,0,1,16.34181-18.3262,77.39409,77.39409,0,0,1,21.74211-5.07822c6.18582-.646,11.17136-.78458,22.48081-.83092h3.60083c5.58567-.04635,9.50951-.13811,13.43334-.36935,1.52328-.09223,2.16976-.13811,5.81646-.36889,7.84767-.50792,11.91006-.69282,16.61847-.7387,13.24843-.09269,23.45031,1.56962,32.17523,5.955ZM119.712,15.97862c0,.04635-.04635.09223-.04635.1381a2.635,2.635,0,0,1-.78457,1.38519l.5538.73869a3.12458,3.12458,0,0,0,1.10758-1.75453c1.66232.18491,2.26245.96949,2.12388,2.30787a9.50646,9.50646,0,0,1-1.70819,4.06285,6.88944,6.88944,0,0,0-.646,1.10759c0,.04635-.04635.09269-.04635.139-2.53865.18444-3.18513.18444-4.524.27667l-2.49277.13856a12.372,12.372,0,0,1,2.262-7.06262,6.617,6.617,0,0,1,2.30786-1.8931,1.208,1.208,0,0,1,1.8931.41569Z" style="fill:#010101"/><path d="M81.82638,68.299c2.35421-.04634,4.9392-.50791,7.432-.09222,1.20028.64648,1.33931,1.84629,1.80042,2.908a4.34822,4.34822,0,0,1-2.585,3.32369c-2.81578.36935-5.49345-.09222-8.30923-.23079a10.58751,10.58751,0,0,1,.50791-3.32369,11.15763,11.15763,0,0,1,1.15393-2.585Zm.18445,13.064c4.89378,1.293,12.87954-1.70818,6.32438-6.64739-2.7699.36935-5.44711-.04634-8.17067-.18444-.23079-.04634,1.52328,6.78549,1.84629,6.83183Z" style="fill:#fff"/><path d="M83.99614,67.74519c-1.38518.09269-1.939.13857-2.63133.13857h-.323l-.09268.323-1.79995,5.81646H78.8257l.139.60014v.04634h.04588l1.66184,6.5547.04634.23079.23033.09268A10.63628,10.63628,0,0,0,89.351,81.04c2.585-1.47741,2.63087-3.87749-.32347-6.32438A4.72325,4.72325,0,0,0,91.5208,71.2538v-.139l-.04634-.13811c-.09269-.18491-.139-.36935-.27713-.69282,0-.04634,0-.04634-.04634-.09222a3.42962,3.42962,0,0,0-1.70773-2.35421l-.04634-.04634H89.3047a16.30611,16.30611,0,0,0-2.67722-.18445c-.69282,0-1.3393.04635-2.63133.13857ZM82.288,75.13129c.83092.04634,1.15393.09222,1.6155.1381a25.925,25.925,0,0,0,4.29318-.04635c2.7699,2.17023,2.7699,3.87795.69236,5.03189a9.73,9.73,0,0,1-7.38562.50791l-1.47741-5.816C80.62611,74.99272,81.22625,75.0386,82.288,75.13129Zm6.83229-6.463c.55379.323.83092.7387,1.20027,1.84676,0,.04634,0,.04634.04588.09222.09269.27667.18445.46157.23079.60014a3.84117,3.84117,0,0,1-2.21564,2.81578,25.37659,25.37659,0,0,1-4.24684.04634c-.462-.04634-.785-.04634-1.616-.139-1.06125-.09176-1.70773-.1381-2.30787-.1381l1.52329-5.03188c.60013,0,1.15393-.04635,2.35421-.13857,1.24661-.09222,1.89263-.1381,2.63133-.1381A13.03978,13.03978,0,0,1,89.12025,68.66834Z" style="fill:#010101"/><path d="M61.7146,109.15049c16.52579-4.24684,12.279-30.69783-4.29318-29.68246C37.57148,80.66877,41.40309,113.21289,61.7146,109.151" style="fill:#fff"/><path d="M57.37508,79.00646a13.514,13.514,0,0,0-10.89423,5.90869A16.84268,16.84268,0,0,0,44.034,96.31729a16.54393,16.54393,0,0,0,5.30948,10.38677c3.231,2.76944,7.47784,3.83115,12.37116,2.86166l-.09268-.41523.09268.41523C78.702,105.22666,74.59369,77.99109,57.37508,79.00646Zm4.2473,29.7288c-4.66207.92315-8.63224-.09268-11.63293-2.67768a16.48047,16.48047,0,0,1-2.72356-20.635,12.72165,12.72165,0,0,1,10.24822-5.53888c16.11055-.96949,19.9885,24.7428,4.10827,28.85108Z" style="fill:#010101"/><ellipse cx="58.99105" cy="101.85662" rx="4.84698" ry="4.47763" style="fill:#010101"/><ellipse cx="60.09864" cy="99.82589" rx="1.24615" ry="1.06171" style="fill:#fff"/><path d="M58.62494,72.05506c18.97268-3.27781,13.94079-34.29865-5.17045-29.821-17.17226,4.01605-12.41751,30.92908,5.17045,29.821" style="fill:#fff"/><path d="M53.36227,41.81881c-17.68018,4.10827-12.8332,31.805,5.30855,30.69736h.04634C67.67241,70.99335,72.24272,63.00666,70.76532,54.19a16.48153,16.48153,0,0,0-5.493-9.97062,13.32087,13.32087,0,0,0-11.91006-2.40055Zm11.3558,3.09244a15.50673,15.50673,0,0,1,5.17045,9.41729c1.38472,8.35558-2.90847,15.83389-11.30992,17.31083-17.08,1.01583-21.65036-25.11215-5.03189-28.98964C57.93212,41.6339,61.76373,42.46482,64.71807,44.91125Z" style="fill:#010101"/><ellipse cx="57.79402" cy="64.43819" rx="4.84698" ry="4.3854" style="fill:#010101"/><ellipse cx="58.9016" cy="62.40699" rx="1.24615" ry="1.01537" style="fill:#fff"/><path d="M72.03835,80.40971c.323,3.64717,4.61619,6.60151,8.03211,4.70842,4.524-2.49231-.41523-8.078.04634-11.54025.09269-4.016,4.24684-7.29387.7387-10.479-3.878-3.55448-7.66321,1.52328-9.32506,5.5398l.50791,11.771Z" style="fill:#f6d2a3"/><path d="M75.13126,62.63731a14.72689,14.72689,0,0,0-3.97017,5.77059l-.04634.09222v.09223l.462,11.81737c.36935,4.10874,5.12411,7.06262,8.72447,5.07823A3.85555,3.85555,0,0,0,82.471,82.21013a10.20528,10.20528,0,0,0-.78458-3.87749c-.04634-.13856-.09269-.323-.18491-.55379-.78458-2.30833-1.01537-3.23147-.8768-4.15462v-.04634a10.071,10.071,0,0,1,1.01537-3.78527,11.66028,11.66028,0,0,0,1.10758-3.50814A4.19845,4.19845,0,0,0,81.22485,62.73a4.265,4.265,0,0,0-6.09359-.09269Zm5.44712.785A3.32764,3.32764,0,0,1,81.825,66.23814a10.09479,10.09479,0,0,1-1.01583,3.23147,10.771,10.771,0,0,0-1.10759,4.06194c-.139,1.15393.09222,2.12342.92315,4.57031.09222.23078.13856.41523.18444.55379,1.15393,3.37,1.06171,4.98554-.96949,6.0936-3.00022,1.66184-7.06261-.87727-7.38562-4.33953l-.462-11.6788a13.943,13.943,0,0,1,3.69351-5.3549c1.66138-1.38472,3.32323-1.43106,4.89286.04635Z" style="fill:#231f20"/><path d="M70.0535,67.71508c-5.26267,1.43106-4.47763,13.43334,1.80041,13.15667C76.516,80.27162,75.26937,66.33036,70.0535,67.71508Z" style="fill:#010101"/></g></g></svg>