<svg xmlns="http://www.w3.org/2000/svg" viewBox="0 0 226.77165 141.73228"><title>Java</title><g id="fc053db2-09ea-4727-995c-6e9f50312ad0" data-name="Java"><g id="a27d655e-0e5f-46fe-a836-26ea55ca665c" data-name="katman 14"><path d="M165.54108,14.353a14.90758,14.90758,0,0,0-6.95707,7.67156,10.254,10.254,0,0,0,6.2425,13.983c.15614.65889.30676,1.36632.45334,2.10618a9.325,9.325,0,0,0-4.69093.03729c-.02228-.0962-.03111-.193-.05626-.289-6.06482-23.06844-17.47548-29.07795-23.73682-30.60651a19.90109,19.90109,0,0,0-19.726,6.10365c-5.77535,6.37312-7.41746,15.86926-4.275,24.80763a15.3,15.3,0,0,0,4.6454,6.5917,20.298,20.298,0,0,0-16.67855,3.56576L99.33434,49.348a42.99741,42.99741,0,0,1-4.64216,3.07831c-1.39206-.859-5.56-4.47154-14.253-19.46062a10.2471,10.2471,0,0,0-18.80576,7.624c.20195.80848.54666,2.10339,1.03985,3.72682a31.86362,31.86362,0,0,0-8.735-1.79111,26.72,26.72,0,0,0-19.87894,6.90029,10.247,10.247,0,0,0,9.7662,17.17895c8.96426-2.27578,13.65585,2.35109,22.98666,14.26774,4.6551,5.94538,9.46848,12.09257,15.911,16.3829,10.77729,7.17807,21.22584,3.81052,30.20135-2.6035a65.885,65.885,0,0,0,6.24876,21.36632c5.40939,11.18355,14.6184,8.16232,15.65157,7.78106,4.96112-1.83267,7.33141-6.27207,8.67684-11.14722a12.54069,12.54069,0,0,0,5.29672-.48231,13.28253,13.28253,0,0,0,6.76291-4.98466c.28984.13105.5849.25637.89217.36787.34714,8.62853,4.54751,17.96051,6.82565,21.4033,5.39291,8.15174,11.98961,7.73812,14.57486,7.18212,9.19137-1.97748,10.87408-12.35792,11.42714-15.76865.27028-1.66683.51084-3.306.74361-4.93686a10.22064,10.22064,0,0,0,3.13369-2.65181c3.18538-4.05322,5.24229-13.01218,6.11542-26.62685v-.00117c.32948-5.14816.49186-10.4587.49186-15.73394a214.85312,214.85312,0,0,0-1.99336-30.39059C196.59681,32.08667,193.0184,7.92153,176.256,6.633A10.24069,10.24069,0,0,0,165.54108,14.353Z" style="fill:#fff;stroke:#5482a1;stroke-miterlimit:10;stroke-width:1.2049623368952076px"/></g><path d="M155.923,90.95413s3.29366,5.66375,4.4082-4.0307c1.33983-11.74455,1.14769-17.74705-1.30189-30.68963a53.39708,53.39708,0,0,0,3.98157-8.15487c12.43484,29.01383-.72026,65.664-7.08788,42.8752" style="fill:#5482a1"/><path d="M139.69633,94.49947s4.70222,6.35244,5.7057-3.3492c1.29429-12.5459,1.40015-22.45367-1.9011-39.59791a17.57447,17.57447,0,0,0,3.71871-6.1c10.2577,35.07945.80893,74.15165-7.52331,49.04708" style="fill:#5482a1"/><path d="M112.17054,64.61118c8.23077-7.149,15.63743,1.87833,15.63743,1.87833s-9.37088-18.15252-21.10544-9.81589c-10.94321,7.78616-16.38045,13.7571-35.12739-18.56718,0,0,12.67213,50.73846,40.5954,26.50474" style="fill:#e7700a"/><path d="M167.9252,26.23806s3.45346-4.19129,6.12514,4.61592c5.07333,16.74718,6.60532,69.70352.20214,84.41457-2.30058,5.28824-5.49317-4.62872-6.1631-7.74821a20.116,20.116,0,0,1-.574-5.11248c-4.143,5.88107,8.1349,38.0128,11.65108,16.32133,9.59338-59.15579-4.31993-107.83535-11.24122-92.49113" style="fill:#5482a1"/><path d="M122.88365,88.23051s6.398,26.937,8.72133,9.53906c.9835-7.34594.761-21.98988-.3819-35.63034-.94037-11.14774-2.93973-22.34141-2.93973-22.34141a47.28817,47.28817,0,0,0,3.62523,6.77469c7.19413,27.354,3.84733,80.19691-3.51139,64.98412-6.219-12.86548-5.51354-23.32612-5.51354-23.32612" style="fill:#5482a1"/><path d="M149.89372,39.90888c-14.4494-27.80663-28.33513-14.94994-26.46439-5.97615a20.81221,20.81221,0,0,0,.85447,3.18022,5.06685,5.06685,0,0,1-1.83279-2.37608c-6.24139-17.753,18.40819-31.40628,28.171,5.73087a2.41885,2.41885,0,0,0-.72824-.55886" style="fill:#5482a1"/><path d="M41.30376,56.67362s15.40493-15.39974,39.09337,14.606c19.00221,24.06155,29.83676,5.48678,42.21567.01C109.94067,85.33472,98.78535,95.642,88.403,88.72706,73.16265,78.57761,65.77357,50.4602,41.30376,56.67362" style="fill:#e7700a"/><path d="M189.04822,85.49811c1.70854-26.69089-.948-67.67778-13.57734-68.6485,0,0,4.7877,1.86594,8.5899,22.05858,4.28715,22.78123,3.78662,50.87868,1.039,67.54355-.00041-.0004,2.82348-3.41151,3.94841-20.95363" style="fill:#5482a1"/></g></svg>