<svg xmlns="http://www.w3.org/2000/svg" viewBox="0 0 226.77165 141.73228"><title>Javasciprt</title><g id="b9ede0dd-6a1f-42bc-905e-c8715eb6ba85" data-name="Javascript"><g id="ad777e98-ce92-4fc5-8a63-e60b2d583492" data-name="katman 33"><rect x="53.49632" y="5.49639" width="130.79492" height="130.79492" rx="8.50391" style="fill:#fff;stroke:#010101;stroke-miterlimit:10"/></g><path d="M62,14H175.7874V127.7874H62Z" style="fill:#f6df1c"/><path d="M91.91886,109.08906l8.70781-5.2698c1.6799,2.97852,3.20808,5.49864,6.87366,5.49864,3.51368,0,5.72892-1.37448,5.72892-6.72068V66.23943h10.69313v36.509c0,11.07531-6.492,16.11646-15.96365,16.11646-8.5541,0-13.51957-4.43031-16.04005-9.77669" style="fill:#010101"/><path d="M129.7306,107.94324l8.70672-5.04114c2.292,3.74306,5.27089,6.49256,10.54087,6.49256,4.43067,0,7.256-2.21524,7.256-5.27052,0-3.66631-2.9023-4.96493-7.79082-7.10286l-2.67256-1.14655c-7.715-3.28376-12.83269-7.40828-12.83269-16.11591,0-8.02,6.11038-14.13077,15.6584-14.13077,6.798,0,11.68634,2.368,15.19948,8.555l-8.32563,5.34638c-1.83324-3.28412-3.81856-4.58238-6.87366-4.58238-3.13168,0-5.11772,1.98586-5.11772,4.58238,0,3.20808,1.986,4.50689,6.56842,6.49293l2.6731,1.14564c9.08945,3.89568,14.20717,7.867,14.20717,16.80332,0,9.62462-7.56163,14.89442-17.72013,14.89442-9.92949,0-16.34565-4.73537-19.47679-10.92251" style="fill:#010101"/></g></svg>