<svg xmlns="http://www.w3.org/2000/svg" viewBox="0 0 226.77165 141.73228"><title>Kubernetes</title><g id="aef78177-a502-4364-a5ba-5a572cb19549" data-name="Kubernetes"><g id="ae2d188f-c5e8-4693-ba8c-b1f1c8762384" data-name="katman 35"><path d="M182.27148,78.45947,172.41234,35.63A19.149,19.149,0,0,0,161.946,22.60044L122.17154,3.50121A19.35352,19.35352,0,0,0,113.948,1.6303a19.79251,19.79251,0,0,0-8.16131,1.80589c-.05586.02564-40.04282,19.14868-40.04282,19.14868a19.1757,19.1757,0,0,0-10.50018,13.0625l-9.85182,42.7947a19.189,19.189,0,0,0,3.761,16.42519l27.56459,34.25792a19.0289,19.0289,0,0,0,14.99659,7.19335h44.23154a19.00511,19.00511,0,0,0,14.96546-7.154l27.53619-34.22678A18.9671,18.9671,0,0,0,182.27148,78.45947Z" style="fill:#fff;stroke:#4067af;stroke-miterlimit:10;stroke-width:0.937745213508606px"/></g><path d="M91.79269,126.45177a9.30008,9.30008,0,0,1-7.33251-3.548L56.8647,88.60654a9.2562,9.2562,0,0,1-1.81342-8.04211L64.90681,37.752a9.32749,9.32749,0,0,1,5.12488-6.38638l39.89517-19.0803a9.35619,9.35619,0,0,1,8.1998,0l39.89518,19.00145a9.3275,9.3275,0,0,1,5.12487,6.38639l9.85553,42.81241a9.511,9.511,0,0,1-1.81342,8.04211l-27.59548,34.29723a9.54453,9.54453,0,0,1-7.33251,3.548l-44.46814.07885Z" style="fill:#3f67af"/><path d="M113.94792,13.31031a7.71255,7.71255,0,0,1,3.23261.7096l39.89518,19.00146a7.65676,7.65676,0,0,1,4.09989,5.12487l9.85553,42.81241a7.37275,7.37275,0,0,1-1.498,6.46523l-27.59547,34.29724a7.5114,7.5114,0,0,1-5.91332,2.83839H91.79269a7.5114,7.5114,0,0,1-5.91332-2.83839L58.2839,87.42388a7.8935,7.8935,0,0,1-1.498-6.46523l9.85552-42.81241a7.52887,7.52887,0,0,1,4.0999-5.12487l39.89518-19.0803a9.49768,9.49768,0,0,1,3.31146-.63076Zm0-3.70568h0a11.93,11.93,0,0,0-4.88835,1.10382L69.1644,29.78876a11.16636,11.16636,0,0,0-6.14985,7.64788L53.159,80.24905a11.17936,11.17936,0,0,0,2.20764,9.619l27.59548,34.29723a11.13768,11.13768,0,0,0,8.75171,4.17875h44.2316a11.13769,11.13769,0,0,0,8.75171-4.17875l27.59548-34.29723a11.12206,11.12206,0,0,0,2.20764-9.619l-9.85553-42.81241a11.16636,11.16636,0,0,0-6.14985-7.64788L118.75742,10.70845a11.30262,11.30262,0,0,0-4.8095-1.10382Z" style="fill:#fff"/><path d="M153.92193,77.56835h-.07884c-.07885,0-.15769,0-.15769-.07884-.15769,0-.31538-.07885-.47306-.07885a10.77428,10.77428,0,0,0-1.498-.15768,2.95743,2.95743,0,0,1-.78844-.07885H150.847a20.81041,20.81041,0,0,1-4.25759-.7096,1.5362,1.5362,0,0,1-.86729-.86728c0-.07885-.07884-.07885-.07884-.15769h0l-1.025-.31538a31.187,31.187,0,0,0-.55191-11.117,32.48758,32.48758,0,0,0-4.41528-10.32859l.78844-.7096v-.15768a1.78169,1.78169,0,0,1,.39423-1.18267,23.00086,23.00086,0,0,1,3.548-2.44417h0c.23654-.15769.47307-.23653.7096-.39422a11.86762,11.86762,0,0,0,1.34035-.78844c.07885-.07885.23653-.15769.39422-.31538.07885-.07884.15769-.07884.15769-.15769h0a2.63319,2.63319,0,0,0,.55191-3.548,2.24283,2.24283,0,0,0-1.81342-.86728,2.93006,2.93006,0,0,0-1.73457.63075h0l-.15768.15769c-.15769.07884-.23654.23653-.39423.31538a13.09267,13.09267,0,0,0-1.025,1.10381,3.64271,3.64271,0,0,1-.55191.55192h0a20.04659,20.04659,0,0,1-3.15377,2.83839,1.27177,1.27177,0,0,1-.7096.23653.99991.99991,0,0,1-.47306-.07885h-.15769l-.94613.63076a38.28916,38.28916,0,0,0-3.23261-2.99608,31.48683,31.48683,0,0,0-16.47845-6.54407l-.07884-1.025-.15769-.15769a1.64762,1.64762,0,0,1-.63076-1.025,27.66647,27.66647,0,0,1,.23654-4.25759v-.07884a2.8011,2.8011,0,0,1,.15769-.78844c.07884-.47307.15768-.94613.23653-1.498v-.7096h0a2.40551,2.40551,0,0,0-4.17874-1.81342,2.49772,2.49772,0,0,0-.7096,1.81342h0v.63075a4.59045,4.59045,0,0,0,.23653,1.498c.07884.23653.07884.47307.15769.78844v.07885a20.3664,20.3664,0,0,1,.23653,4.25759,1.64757,1.64757,0,0,1-.63075,1.025l-.15769.15769h0l-.07884,1.025a39.615,39.615,0,0,0-4.25759.63076,30.39488,30.39488,0,0,0-15.61116,8.83055l-.78844-.55191h-.15769c-.15769,0-.31537.07884-.47306.07884a1.2717,1.2717,0,0,1-.7096-.23653,20.90823,20.90823,0,0,1-3.15377-2.91723h0a3.64222,3.64222,0,0,0-.55191-.55191,13.0896,13.0896,0,0,0-1.025-1.10382c-.07884-.07885-.23653-.15769-.39422-.31538-.07884-.07884-.15768-.07884-.15768-.15769h0a2.75528,2.75528,0,0,0-1.73458-.63075A2.24284,2.24284,0,0,0,80.518,43.823a2.6332,2.6332,0,0,0,.55191,3.548h0c.07884,0,.07884.07884.15768.07884.15769.07884.23654.23653.39423.31538a11.86913,11.86913,0,0,0,1.34035.78844,3.19583,3.19583,0,0,1,.7096.39422h0a23.001,23.001,0,0,1,3.548,2.44417,1.44823,1.44823,0,0,1,.39422,1.18266v.15769h0l.78844.7096a2.76561,2.76561,0,0,0-.39422.63076,30.70747,30.70747,0,0,0-4.41528,20.81487l-1.025.31538c0,.07884-.07885.07884-.07885.15769a1.83345,1.83345,0,0,1-.86728.86728,19.9119,19.9119,0,0,1-4.25759.7096h-.07885a2.68235,2.68235,0,0,0-.78844.07884,10.77438,10.77438,0,0,0-1.498.15769c-.15769,0-.31537.07885-.47306.07885a.28967.28967,0,0,0-.23654.07884h0a2.58557,2.58557,0,0,0-2.04995,2.91723,2.43,2.43,0,0,0,2.523,1.81342,1.73589,1.73589,0,0,0,.63075-.07885h0c.07885,0,.15769,0,.15769-.07883.15769,0,.31538-.07885.47307-.07885A7.58859,7.58859,0,0,0,77.443,81.274c.23653-.07885.47307-.23654.7096-.31538h.07884a19.36863,19.36863,0,0,1,4.0999-1.18266h.15769a1.75492,1.75492,0,0,1,1.025.39422c.07884,0,.07884.07884.15769.07884h0l1.10381-.15769a31.183,31.183,0,0,0,10.3286,14.82272,31.91734,31.91734,0,0,0,3.3903,2.28648l-.47307,1.025c0,.07884.07885.07884.07885.15769a1.61892,1.61892,0,0,1,.15769,1.2615,22.22953,22.22953,0,0,1-2.05,3.70568v.07884c-.15768.23654-.31537.39422-.47306.63076-.31538.39422-.55191.78844-.86729,1.26151a1.72367,1.72367,0,0,0-.23653.39422.2753.2753,0,0,1-.07884.15769h0a2.49381,2.49381,0,0,0,1.025,3.3903,2.09932,2.09932,0,0,0,.94613.23653,2.83472,2.83472,0,0,0,2.36533-1.498h0a.2753.2753,0,0,1,.07884-.15769,1.72352,1.72352,0,0,1,.23654-.39422,14.93317,14.93317,0,0,0,.47306-1.41919l.23653-.7096h0a18.52985,18.52985,0,0,1,1.65573-3.94221,2.02425,2.02425,0,0,1,1.025-.7096c.07884,0,.07884,0,.15769-.07885h0l.55191-1.025a30.80443,30.80443,0,0,0,11.03819,2.05,28.61882,28.61882,0,0,0,6.85944-.78844,35.0406,35.0406,0,0,0,4.09991-1.18267l.47306.86729c.07885,0,.07885,0,.15769.07884a1.46136,1.46136,0,0,1,1.025.7096,26.99268,26.99268,0,0,1,1.65573,3.94222v.07884l.23653.7096a9.98605,9.98605,0,0,0,.47307,1.41919c.07884.15769.15769.23653.23653.39422a.27526.27526,0,0,0,.07884.15769h0a2.67842,2.67842,0,0,0,2.36533,1.498,2.09939,2.09939,0,0,0,.94614-.23653,2.34841,2.34841,0,0,0,1.18266-1.4192,2.85182,2.85182,0,0,0-.15769-1.9711h0c0-.07885-.07884-.07885-.07884-.15769a1.7233,1.7233,0,0,0-.23654-.39422,7.14457,7.14457,0,0,0-.86729-1.26151c-.15769-.23654-.31538-.39422-.47306-.63076v-.07884a17.69541,17.69541,0,0,1-2.05-3.70568,2.19685,2.19685,0,0,1,.07884-1.2615c0-.07885.07885-.07885.07885-.15769h0l-.39422-.94614A31.27952,31.27952,0,0,0,143.751,80.01252l.94613.15769c.07884,0,.07884-.07885.15769-.07885a2.00368,2.00368,0,0,1,1.025-.39422h.15769a19.36837,19.36837,0,0,1,4.0999,1.18267h.07885c.23653.07884.47306.23653.7096.31537a7.5879,7.5879,0,0,0,1.41919.55191c.15769,0,.31538.07885.47306.07885a.28965.28965,0,0,1,.23654.07885h0a1.7363,1.7363,0,0,0,.63075.07883,2.654,2.654,0,0,0,2.523-1.81341,3.0347,3.0347,0,0,0-2.28649-2.60186ZM117.41707,73.705l-3.46915,1.65574L110.47877,73.705l-.86729-3.70567,2.36533-2.99608h3.86336l2.36534,2.99608-.78844,3.70567Zm20.57833-8.19979a24.86109,24.86109,0,0,1,.55191,7.96326l-12.06316-3.46914a2.13712,2.13712,0,0,1-1.498-2.523,1.87931,1.87931,0,0,1,.47307-.86728l9.54014-8.594a25.26165,25.26165,0,0,1,2.99608,7.4902Zm-6.7806-12.22086-10.32859,7.33251a2.09966,2.09966,0,0,1-2.75955-.47306,1.75022,1.75022,0,0,1-.39422-.86729l-.7096-12.8516a23.93109,23.93109,0,0,1,14.192,6.85944ZM108.35,46.81911c.86728-.15769,1.65572-.31538,2.523-.47307l-.7096,12.61508a2.15791,2.15791,0,0,1-2.12879,2.04995,1.87284,1.87284,0,0,1-.94613-.23654l-10.48628-7.4902A24.052,24.052,0,0,1,108.35,46.81911ZM92.81767,58.015l9.38246,8.35748a2.09914,2.09914,0,0,1,.23653,2.91724,1.5694,1.5694,0,0,1-.94613.63075l-12.22085,3.548a25.38144,25.38144,0,0,1,3.548-15.45346Zm-2.1288,21.36678L103.2251,77.253a2.12594,2.12594,0,0,1,2.20764,1.65572,2.252,2.252,0,0,1-.07884,1.26151h0l-4.8095,11.5901a24.85191,24.85191,0,0,1-9.85553-12.37854Zm28.77814,15.69a25.74981,25.74981,0,0,1-5.51909.63075,26.71308,26.71308,0,0,1-7.96327-1.26151l6.22869-11.27472a2.06985,2.06985,0,0,1,2.523-.55191,3.36119,3.36119,0,0,1,.94613.86729h0l6.071,10.95934c-.70959.23654-1.498.39422-2.28648.63076Zm15.37463-10.95935a25.02343,25.02343,0,0,1-7.56905,7.64789L122.3054,79.85483a2.12224,2.12224,0,0,1,1.10382-2.44417,2.51845,2.51845,0,0,1,1.10382-.23653l12.61508,2.12879a15.86759,15.86759,0,0,1-2.28648,4.8095Z" style="fill:#fff"/></g></svg>