<svg xmlns="http://www.w3.org/2000/svg" viewBox="0 0 226.77165 141.73228"><title>Master Yoda</title><g id="f63bae92-45e7-455a-bf02-62f61f29e3ab" data-name="Master Yoda"><g id="f92e4b73-3893-42cd-ad13-1c35f17ed049" data-name="katman 5"><path d="M73.67424,9.42988a23.37276,23.37276,0,0,0-5.24948,15.04164,25.87913,25.87913,0,0,0,.4271,4.64971c.102.55484.2595,1.558.38824,2.62373C64.77971,34.55851,58.85221,39.603,56.07551,47.612a20.87678,20.87678,0,0,0-1.16874,6.85037,22.75916,22.75916,0,0,0,4.56237,13.33674,21.88327,21.88327,0,0,1-5.71546,5.05612,8.793,8.793,0,0,0-4.47,7.65511q0,.20749.00959.41651a8.79359,8.79359,0,0,0,5.201,7.61472c.91985.41045,7.41682,3.07911,16.85861,1.23286a8.75806,8.75806,0,0,0,1.00517.49526,8.79321,8.79321,0,0,0,5.64377,3.12252,12.27739,12.27739,0,0,0,2.39251.05049,8.793,8.793,0,0,0,5.23332,2.60606,6.78041,6.78041,0,0,1-.32159,1.925,10.20431,10.20431,0,0,0-.4468,3.00086,8.7534,8.7534,0,0,0,4.5548,8.02971c3.78489,1.84625,7.91309,1.25052,10.41616-2.04769.96579-.53565,4.40687-2.07142,11.748-1.82455,3.04175.95216,10.78924,3.05235,27.58778,6.01989a8.7931,8.7931,0,0,0,8.422,6.90843,6.78094,6.78094,0,0,0,.414,1.00113,7.95748,7.95748,0,0,0,4.8557,4.28369c.627.37107,2.917,1.94369,4.84963,6.05926a8.79317,8.79317,0,0,0,16.55721-1.90027c.16256-.76435,3.99946-18.88661,3.99946-33.98328,0-6.31977-.67348-11.36781-2.04971-15.31274a76.31421,76.31421,0,0,0,.3746-7.951c0-3.69806-.208-7.69045-.61693-11.87317a8.79375,8.79375,0,0,0,6.18043-8.39321c0-.07573-.12924-5.1475-.12924-5.1475a8.79557,8.79557,0,0,0-7.08614-8.39977,8.79263,8.79263,0,0,0-12.83644-5.46454c-1.57211.887-3.41685,1.89825-4.85973,2.66159-.57048-.20548-1.20761-.44831-1.89118-.72952a8.80075,8.80075,0,0,0-2.1941-4.20443c-.68357-.727-16.41686-17.12113-39.5695-11.57985l-.47809-.14539a8.7917,8.7917,0,0,0-11.29764,7.41328l-.08633.05049A12.67049,12.67049,0,0,0,96.75114,21.508a11.8338,11.8338,0,0,0-3.86921-.49476,21.542,21.542,0,0,0-2.6833-2.44753c-.888-.6866-1.28536-1.31161-1.28536-1.62664a.73335.73335,0,0,1,.01262-.12723,8.79291,8.79291,0,0,0-15.25165-7.382Z" style="fill:#fff;stroke:#99722c;stroke-miterlimit:10;stroke-width:1.033942284402535px"/></g><path d="M93.708,100.56626s4.793-4.9823,19.48717-4.16233c0,0,7.0634,2.775,35.44286,7.44165a27.00191,27.00191,0,0,1-.88323,5.42366s6.43275-.63046,9.20771,1.38736a24.79422,24.79422,0,0,1-.75673,4.54082s5.54972,2.14431,9.4597,10.46879c0,0,7.44165-34.812,1.51366-46.28973,0,0,1.38736-6.81139,0-20.55951h-1.135s-.25239-1.26129.1259-8.82886a66.37427,66.37427,0,0,0,7.18948,0l-.12609-4.91927a53.24678,53.24678,0,0,1-7.06339-.25237l.25218-6.18017s-7.81992,4.41451-8.57686,4.41451a51.46943,51.46943,0,0,1-12.23444-5.17125l-2.775,1.26092a31.2287,31.2287,0,0,1,3.91-4.41434s-13.622-14.50486-33.29874-8.45077l-2.90067-.88283s-.50455,4.41433-6.18055,7.694a37.96051,37.96051,0,0,0,3.02732,4.793s-1.0093.50417-1.13539,1.26092c0,0,3.27971,3.27968,3.53207,6.30683a1.82652,1.82652,0,0,0,1.51332,0s-1.26111,2.90086-2.27023,3.27932a19.24579,19.24579,0,0,1-2.1443-1.766,27.98822,27.98822,0,0,1-2.64888,2.1443s-.88282-1.63957-1.51347-1.89174c0,0,1.76584-5.42364-2.39648-5.676,0,0-3.27934-17.02763-10.21645-10.09053,0,0-1.13539-1.135-2.27057-.75674,0,0,.883-2.14411-3.027-5.17144-3.91017-3.02695-5.17128-6.81121-4.54082-10.27948a15.23508,15.23508,0,0,0-2.77477,12.2975s1.38719,7.568.37847,9.586c0,0-10.21662,3.91014-13.49613,13.37-3.27933,9.45969,6.30646,16.397,6.30646,16.397S65.89639,76.097,58.07626,80.51169c0,0,8.19859,3.65758,19.80259-2.2704,0,0,.50436,1.38738-2.14431,3.90995,0,0,4.03606.37828,5.29734-2.27039,0,0,.88264,1.1352-1.89193,4.7928,0,0,2.901.37846,8.703-2.90086,0,0-1.26092,4.16235-1.13521,5.54991,0,0,2.775-.25237,6.559,3.40541,0,0,2.27036,3.91.4413,9.83815Z" style="fill:#1d1d1b"/><path d="M61.35557,79.50258a44.56971,44.56971,0,0,0,9.4597-10.59528c4.6669-7.06319,8.70315-8.07192,8.70315-8.07192a6.24931,6.24931,0,0,1-3.40561-4.6669s-3.658,1.89214-4.16215,8.82886l-.63083,1.135S59.84211,56.42047,67.91441,46.204c0,0,5.54973-7.8205,10.09034-6.43273a2.94916,2.94916,0,0,0-2.64868-.63083,15.81342,15.81342,0,0,1,4.28862-2.14413l-1.0091-.1261s.88283-2.901-.12609-9.08122c-1.00912-6.18055,0-7.9466.37807-8.82942,0,0-.63045,3.40541,1.38758,9.0816,0,0,1.76585,3.53189,1.76585,4.793,0,0-2.14431,1.76546-1.51348,3.91016,0,0,1.0091-3.6576,3.27951-4.28863,0,0,1.26132,4.91908.37829,7.44167a4.74641,4.74641,0,0,1-2.71173-2.96391s-.63065,2.5224,2.52258,3.53169v.37828s-3.91015-2.01784-5.92856,1.38738a5.49517,5.49517,0,0,0-6.05371,4.28861s-3.15342-.75692-4.41471,3.53152c0,0,1.63956-3.27933,4.793-2.901a5.54241,5.54241,0,0,1,5.92818-4.28844s1.00892-2.775,5.67582-1.51349c0,0-.18914,2.08127-4.03606,8.45079,0,0-2.775,4.6667,0,7.06319,0,0-.75692-2.018-.37845-3.02713,0,0,1.51345,1.63975,3.02712,1.63975a13.78666,13.78666,0,0,0,0,4.03606s.37828-2.2702.37828-3.02733a22.52746,22.52746,0,0,1,1.2613,3.27951s.25236-1.1352-.75674-4.03587A5.90055,5.90055,0,0,0,88.537,52.06918c1.3872-3.53169.12607-5.676.12607-5.676a27.43921,27.43921,0,0,1,9.45988,16.77546s.75657-5.80192-4.79316-13.74831a9.39579,9.39579,0,0,1-.07886-5.2345L94.528,45.321a2.75447,2.75447,0,0,0-.99328-1.79709s.37846-1.32453.99328-1.60852a20.11655,20.11655,0,0,1,1.70318,2.08127s.18877-.75674-1.3247-2.5542c0,0,.61464-.80416,1.04053-.89865a6.00312,6.00312,0,0,1-.80416-3.31093,10.42917,10.42917,0,0,1,3.64217,4.9665,4.80836,4.80836,0,0,0-.52038.75674,2.23184,2.23184,0,0,1,3.3582.80417c1.27727,2.27-.37847,5.72324-1.18245,6.48a4.62924,4.62924,0,0,0,1.89193-1.89212,59.55135,59.55135,0,0,1,3.73664,9.79111A7.597,7.597,0,0,0,104.08236,59.7a48.04179,48.04179,0,0,0-2.88523-6.90569s2.17592,7.14226,2.223,7.37862c0,0-.47274.47313-1.08778,1.22949,0,0-1.37176-2.97952-2.2702-4.493a34.17529,34.17529,0,0,0,1.7026,5.061s-2.12851,2.50677-2.93248,3.73645A16.18286,16.18286,0,0,0,90.602,73.74771a13.35079,13.35079,0,0,0-4.35128-3.973,27.36956,27.36956,0,0,0,1.27711-3.21647s-5.15563,11.63563-20.24411,13.7167c0,0,15.325-4.1149,17.59524-16.64936,0,0-5.34458-1.41881-10.453,4.54081-5.10822,5.9598-6.74854,8.86046-13.07044,11.3362Z" style="fill:#cfd9ae"/><path d="M88.332,45.69949a19.7199,19.7199,0,0,1,4.39852,3.21608,11.47042,11.47042,0,0,1-.09447-3.8311,4.48378,4.48378,0,0,0-1.98661,0s.37846-.56742,2.12851-.70952a3.78161,3.78161,0,0,1,.52056-1.60793,12.96174,12.96174,0,0,0-3.31132.18913,7.74126,7.74126,0,0,1,3.54751-.80416,10.29062,10.29062,0,0,1,1.65556-1.75,21.21934,21.21934,0,0,0-3.83131-.61482s.23637-.2838,3.50008-.14191a7.44007,7.44007,0,0,1-.18913-2.64886,4.7586,4.7586,0,0,0-4.6353.14189s.52019.5678-.5674,1.703a2.51948,2.51948,0,0,1,.804,2.31746s-1.98658.804-1.04073,1.75A3.06,3.06,0,0,1,87.717,44.80086s.66207.61484.615.89863Z" style="fill:#cfd9ae"/><path d="M88.7105,42.95615s-.5678,1.4188-1.4192,1.37158-.37845-1.65538.23657-2.08108a3.14331,3.14331,0,0,1-.4257-1.89194c.18913-.85139.23636-1.1352,1.08775-1.56091,0,0-.09463-1.18223.56762-1.56089.66226-.37827,1.46642.1419.5676,1.46624a1.01516,1.01516,0,0,0-.52035-.09467s1.37192,1.23006.9933,2.36488c0,0-2.03384.70987-1.08759,1.98679Z" style="fill:#cfd9ae"/><path d="M91.40641,36.00343a5.56826,5.56826,0,0,0-.89865-3.9732s4.87168-5.77049,9.22314,9.60158a.60151.60151,0,0,0-.56721.37809s-1.98679-7.85157-7.75728-6.00647Z" style="fill:#cfd9ae"/><path d="M86.34543,43.52394a4.07585,4.07585,0,0,1,.75674-1.41918,2.87025,2.87025,0,0,1-.52017-2.03385,6.06923,6.06923,0,0,1-1.89194.47293,4.58973,4.58973,0,0,1-.7097,2.36488,5.49913,5.49913,0,0,1,1.75005.23657,2.35885,2.35885,0,0,1,.42568-2.60145s-.75672,1.84471.18934,2.9801Z" style="fill:#cfd9ae"/><path d="M86.62923,39.55055a17.84635,17.84635,0,0,0,2.36485-7.946s.94589.52037,1.13522.89845a10.19284,10.19284,0,0,1-.99349,4.02044s-1.46625.04742-1.13483,1.89213a4.21822,4.21822,0,0,0-1.37175,1.135Z" style="fill:#7c9466"/><path d="M89.51445,36.6655a.218.218,0,0,1,.331.09467,3.832,3.832,0,0,1,.94589-.61505s.42571-.66224-.28361-2.88543a14.28747,14.28747,0,0,1-.99331,3.40581Z" style="fill:#7c9466"/><path d="M86.06144,39.78712s.04742-1.892.09465-5.25013c0,0,.80418.61485,2.12853-.37866a21.32533,21.32533,0,0,1-2.22318,5.62879Z" style="fill:#fff"/><path d="M86.15609,34.06386s1.37178.89884,2.27043-.8514a4.60367,4.60367,0,0,0,.14188-1.75022l-.70951-.18894s.37848,2.223-1.75,2.08088l.04723.70968Z" style="fill:#4e492d"/><path d="M86.10886,32.40829a1.83157,1.83157,0,0,0,.99331-.37806c.331-.33124-.04743-.94607-.99331-.42571v.80377Z" style="fill:#fff"/><path d="M85.58869,39.83454s.09428-6.00723-.14208-7.85155l-1.04053.804s.89863,2.41211.47292,7.14206c0,0,.56761.09464.70969-.09448Z" style="fill:#7c9466"/><path d="M82.60878,32.17213a4.23757,4.23757,0,0,1,1.32435-.85179l.37846.80455a5.87507,5.87507,0,0,1,1.18244-.94607s-.70952-2.55439-4.02044-1.84489c0,0,1.22988,2.27059,1.13519,2.8382Z" style="fill:#a29352"/><path d="M81.3317,28.86117s3.12178-1.56089,4.54061,2.17574c0,0,.82836-.57559,1.27708-.4257a4.40794,4.40794,0,0,0-1.75-3.35816c-1.65556-1.32454-4.06767-1.46643-5.15564-.615l1.088,2.22315Z" style="fill:#a29352"/><path d="M80.05459,26.11766a4.78106,4.78106,0,0,1,3.68922-.331A11.24922,11.24922,0,0,1,79.487,17.8404s-1.04053,3.2637.56761,8.27726Z" style="fill:#a29352"/><path d="M76.649,49.81421a9.60006,9.60006,0,0,1,6.71656-7.14186s-6.10153-.615-6.71656,7.14186Z" style="fill:#1d1d1b"/><path d="M74.28411,49.247s-3.12181.75674-3.50008,3.68922c0,0-2.79057-.56762-3.68921,3.83111,0,0-.14191-4.68252,3.358-4.54062a3.32536,3.32536,0,0,1,3.8313-2.97971Z" style="fill:#1d1d1b"/><path d="M72.62854,64.05145s2.74335-2.93245,5.48668-3.453c0,0-1.79728-.75673-2.31745-3.59454a10.98751,10.98751,0,0,0-3.16923,7.04757Z" style="fill:#d8e0d7"/><path d="M79.67612,52.7943a4.455,4.455,0,0,0,3.07457,2.1285,25.12164,25.12164,0,0,1,0-8.9397,37.1811,37.1811,0,0,0-3.07457,6.8112Z" style="fill:#7c9466"/><path d="M83.3181,55.01727s2.838-3.92558,2.838-11.11524c0,0,1.60816,1.1352.37847,6.6693a11.67544,11.67544,0,0,1-2.12848,4.39889,1.40073,1.40073,0,0,1-1.088.04705Z" style="fill:#7c9466"/><path d="M85.11555,54.78091a12.19506,12.19506,0,0,0,1.98662-9.93282s1.79727,1.419,1.56088,5.20288a5.22152,5.22152,0,0,1-3.5475,4.72994Z" style="fill:#7c9466"/><path d="M83.12878,54.308s-.28381-4.16234-.23637-5.53411a2.88645,2.88645,0,0,0,2.4123-1.04055A20.5852,20.5852,0,0,1,83.12878,54.308Z" style="fill:#fff"/><path d="M82.98706,48.39559a6.37462,6.37462,0,0,1,.04725-1.93917s1.98659.47273,2.08124-1.51385a1.40892,1.40892,0,0,0-.804-1.51348,2.62053,2.62053,0,0,1,1.41882.33123,22.37821,22.37821,0,0,1-.2838,3.07419,3.25081,3.25081,0,0,1-2.45955,1.56108Z" style="fill:#4e492d"/><path d="M83.17639,45.321s.75674.47294,1.08778-.18933c.33121-.66207-.5676-.9933-.5676-.9933a3.11406,3.11406,0,0,0-.52018,1.18263Z" style="fill:#fff"/><path d="M105.738,53.07811a25.17807,25.17807,0,0,0-1.32456-3.45284,4.91508,4.91508,0,0,0,2.55441-1.65537,11.9586,11.9586,0,0,0,5.67582,3.169,4.73582,4.73582,0,0,1-.42589,1.98643s-5.01353-.47314-6.47978-.04724Z" style="fill:#f1f2e8"/><path d="M109.66371,49.05766a11.94407,11.94407,0,0,0,2.97991,1.46625,13.93818,13.93818,0,0,0-.14209-5.62879h-.23637a7.213,7.213,0,0,1-2.60145,4.16254Z" style="fill:#f1f2e8"/><path d="M107.53522,63.20005s-.23639-5.77046-1.56072-9.3652a33.47619,33.47619,0,0,1,6.29066-.14172s-.99332,3.83111-1.37178,4.68214l1.2297.568a15.39353,15.39353,0,0,1-3.2161,4.11511,5.545,5.545,0,0,0-1.37176.1417Z" style="fill:#a56c4b"/><path d="M100.4404,65.04476a51.08392,51.08392,0,0,1,6.71635-1.84471,34.153,34.153,0,0,0-.94606-4.304,29.61675,29.61675,0,0,0-5.77029,6.14874Z" style="fill:#a56c4b"/><path d="M78.49387,77.81539s.66207,1.75023-1.41919,3.64217c0,0,3.07438-.09467,4.35166-3.8313,0,0,1.41863,1.8447-.52054,5.91238l1.98661-.52037a9.08176,9.08176,0,0,0,.615-9.365,23.75914,23.75914,0,0,1-5.01356,4.16214Z" style="fill:#d8e0d7"/><path d="M83.55487,82.6398a7.81728,7.81728,0,0,0,.23616-9.27035l1.04053-1.372a8.2148,8.2148,0,0,1,.56781,9.79112l-1.8445.8512Z" style="fill:#d8e0d7"/><path d="M86.20333,81.41032l1.892-1.22986A36.52856,36.52856,0,0,1,90.224,74.50465a18.09314,18.09314,0,0,0-4.16252-4.257l-1.08778,1.51367a7.46352,7.46352,0,0,1,1.22967,9.649Z" style="fill:#d8e0d7"/><path d="M76.27053,66.98432s-.52018,3.358,5.43962,2.743a19.6474,19.6474,0,0,0,2.69593-5.67583s-4.0677-.804-8.13555,2.93287Z" style="fill:#a29352"/><path d="M73.05444,70.72077S75.514,67.93,75.89225,67.45726c0,0-.94588,3.26351,5.53409,2.79039a21.67557,21.67557,0,0,1-2.41248,2.6959s-4.87184.04724-5.95942-2.22278Z" style="fill:#a29352"/><path d="M72.72321,71.43009s.04743,1.93936,5.81771,1.98658a23.45418,23.45418,0,0,1-4.54062,3.358s-3.35835-.0943-4.588-1.65538c0,0,3.02714-3.169,3.31094-3.6892Z" style="fill:#a29352"/><path d="M59.99981,80.44845a24.26884,24.26884,0,0,0,8.89229-4.856s.6935,1.45063,4.44594,1.48205c0,0-7.50471,4.41452-13.33823,3.374Z" style="fill:#a29352"/><path d="M106.00592,65.56513l1.7028-1.32453S98.186,65.5017,94.71718,69.22271c-3.4685,3.72084-5.80191,9.83836-7.06341,17.217,0,0,1.32433-.06285,5.1084,2.45935a14.88976,14.88976,0,0,1-.37825-10.784c2.08106-5.8021,5.73885-10.53184,13.622-12.54987Z" style="fill:#f1f2e8"/><path d="M95.03258,98.54824s.69369-3.09036-1.00891-8.45078c-1.70281-5.36057-3.78407-10.53165,3.5315-19.29784,0,0,4.03625-3.84711,7.3786-4.28862,0,0-6.6219,3.91-9.01819,9.649-2.39668,5.73885,0,10.3427,2.96412,13.3066,2.9639,2.96409,10.65792,5.86514,10.65792,5.86514s-8.577-.31523-14.505,3.21647Z" style="fill:#f1f2e8"/><path d="M116.66406,73.322s3.153,3.46884,4.03606-.12609c.88282-3.59474.06285-9.7753-7.568-13.81135a31.23133,31.23133,0,0,1-5.36039,5.61277c-2.838,2.14411-9.90119,7.00014-11.3518,11.66722-1.45044,4.66671-1.8331,13.08263,16.77525,18.09981,18.47827,4.98211,28.56879,6.49559,35.632,7.44146A45.72782,45.72782,0,0,0,147.43981,87.701a73.15771,73.15771,0,0,0-4.09928-11.03642s9.586,12.29752,5.80209,31.21709a16.13137,16.13137,0,0,1,7.94622,1.89213,57.77764,57.77764,0,0,0-3.973-25.22622s7.18911,11.54133,4.28806,30.33462a18.2691,18.2691,0,0,1,7.50492,7.12623s3.65775-23.08171,3.21624-31.09116c-.44131-8.00926-.75671-13.55918-10.02728-20.43324-9.27055-6.87386-11.667-7.18948-11.667-7.18948A33.66216,33.66216,0,0,1,134.19607,77.5476c-9.08143,6.05408-24.09085,5.48648-25.60433,5.108,0,0,23.27125-.25218,31.59575-13.3068,8.32466-13.05424,8.32466-16.14462,8.32466-16.14462S130.09674,57.1776,113.57387,45.321c0,0,1.63956,5.42343-1.63994,12.36073a14.94292,14.94292,0,0,1,8.70314,8.0725c2.5224,6.18019-.12628,13.74832-3.973,7.56775Z" style="fill:#f1f2e8"/><path d="M119.50207,47.9699s9.33321,5.54951,28.37907,4.91906a50.944,50.944,0,0,0-12.739-5.04535l-5.67586,1.766s-2.01821-2.52258-7.6942-5.6762c0,0-1.135,3.406-2.27,4.03645Z" style="fill:#d7d3c7"/><path d="M110.326,44.80086a5.502,5.502,0,0,0,3.73645-1.65557,15.49009,15.49009,0,0,1-2.2702-.5676,4.14611,4.14611,0,0,0-.70949-3.59474,4.90747,4.90747,0,0,1-3.07458-.56741,2.64357,2.64357,0,0,0-.8514.75655,9.63225,9.63225,0,0,1,3.16922,5.62877Z" style="fill:#cfd9ae"/><path d="M108.62316,37.98984a8.18257,8.18257,0,0,0,4.91909-.80436l-2.12831-1.41881a3.49351,3.49351,0,0,0,.66189-1.60834l-.61485-.047a9.03079,9.03079,0,0,0-2.6959-3.642,22.21368,22.21368,0,0,1-3.35837,2.74314s2.31782,3.73684,3.21645,4.77738Z" style="fill:#cfd9ae"/><path d="M109.19078,29.90153a7.3051,7.3051,0,0,1,2.69591,3.40561s3.73684.18913,5.061-.61484c0,0-1.939-.8514-2.31746-1.56091,0,0,2.41212-1.41882.61466-2.93247a9.76975,9.76975,0,0,0-4.25683-1.892,6.8939,6.8939,0,0,1-1.79726,3.59456Z" style="fill:#cfd9ae"/><path d="M115.48161,31.22606l.37809.23618s2.223-2.27,2.5542-2.55383c0,0-.52017-.99329-1.74984-.18932,0,0,.89863,1.13539-1.18245,2.507Z" style="fill:#cfd9ae"/><path d="M112.12308,35.672a15.29858,15.29858,0,0,1,2.74333,1.5609,6.219,6.219,0,0,1-3.26334,1.7028,4.23757,4.23757,0,0,1,1.13522,3.31094,10.67919,10.67919,0,0,0,2.45954.2838,6.215,6.215,0,0,1-1.89214,1.89194,46.68043,46.68043,0,0,0,5.53392,3.1218,8.72225,8.72225,0,0,0,1.89213-5.676c.047-3.73663-1.5609-5.25011-3.64219-6.29083,0,0-1.89172-.61465-1.65535-1.56071a9.25123,9.25123,0,0,1-2.69591.23637,1.99362,1.99362,0,0,1-.61521,1.419Z" style="fill:#cfd9ae"/><path d="M116.38026,28.19892a4.35407,4.35407,0,0,0-1.98661-1.41919s15.041-5.20288,30.2716,7.66261c0,0-6.05448,3.40541-19.3929,2.554a15.67473,15.67473,0,0,1-.5678-2.93249c0-.94586,1.7028-2.27038,4.82461,2.45955a23.01617,23.01617,0,0,1,6.14913-5.58153s-7.75728-.47256-12.771-4.91889a8.64165,8.64165,0,0,0-3.87835,2.45954s-.75675-1.60814-2.64868-.28361Z" style="fill:#d7d3c7"/><path d="M125.83993,38.88848,125.367,37.6588s11.4463,1.60815,19.29824-2.45973a31.6186,31.6186,0,0,0-3.50066,4.63547,19.74711,19.74711,0,0,1-15.32466-.94606Z" style="fill:#f1f2e8"/><path d="M121.58294,42.86149s1.22967-5.01374-3.31075-7.47309a17.11567,17.11567,0,0,1,1.22988-6.2436s2.36488-2.36507,3.40522-2.45955l.66207.5678s-3.21589,2.08088-2.08069,7.37842c1.13482,5.29755,1.79728,8.79762,1.79728,8.79762l-1.703-.5676Z" style="fill:#99722c"/><path d="M123.664,43.71309l-1.9864-9.64923s-.66228-4.72993,2.17573-6.33807a18.46186,18.46186,0,0,0,9.365,3.68941l-1.79728,1.79726s-4.72975-2.17555-6.71654-2.17555c0,0-3.87834,6.81084,5.1086,14.56811l5.86514-2.2706s8.3245-.94587,10.78405-1.89193c0,0,10.784,5.9598,14.28409,7.095l-4.257-.56759a38.097,38.097,0,0,0-12.8651-4.82461s-8.32468,4.06787-14.18962,5.29754c0,0-4.16234-4.06788-5.77067-4.72974Z" style="fill:#582d23"/><path d="M128.2993,43.42909l1.51385,1.60814a56.19239,56.19239,0,0,1,6.43238-2.27021c1.60813-.2838,9.46-1.22987,10.50041-1.89175a120.88237,120.88237,0,0,0,10.87888,5.67562,35.22818,35.22818,0,0,0,15.04121,2.554V45.88862s-12.7708,1.51367-26.96046-7.00014c0,0-6.33807,3.31093-10.31126,2.64867a17.68585,17.68585,0,0,1-7.095,1.89194Z" style="fill:#99722c"/><path d="M136.71864,47.11849l7.09482-2.93266a49.56376,49.56376,0,0,1,5.77067,1.41919s-8.23021,1.98641-11.44667,2.08107l-1.41882-.5676Z" style="fill:#f1f2e8"/><path d="M139.65112,48.06417s8.04108-.851,11.44649-1.89175a49.82328,49.82328,0,0,1,5.3918,2.55421,61.95588,61.95588,0,0,0,8.514.94588l.09468.56778H144.57039a36.96837,36.96837,0,0,0-4.91927-2.17612Z" style="fill:#f1f2e8"/><path d="M159.04383,43.42909s5.29734-2.58563,6.338-3.68921l-.09464,4.82478a42.75612,42.75612,0,0,1-6.24341-1.13557Z" style="fill:#f1f2e8"/><path d="M146.273,50.997s15.9871,0,18.73043-.18933l-.18912,8.04089-10.21682.09465s1.13539.94589,12.01409.94589c0,0,.94606,10.12214-.66207,17.31141,0,0-2.17573-6.14892-18.82511-15.41948,0,0,2.93267-6.90549,2.838-8.419A20.51931,20.51931,0,0,0,146.273,50.997Z" style="fill:#f1f2e8"/><path d="M124.98855,32.8342a12.61365,12.61365,0,0,1,.33121-1.22968,18.42543,18.42543,0,0,1,5.67563,1.9866s-1.51345,1.51329-1.51345,2.03366c0,0-2.74336-3.87855-4.49339-2.79058Z" style="fill:#99722c"/></g></svg>