<svg xmlns="http://www.w3.org/2000/svg" viewBox="0 0 226.77165 141.73228"><title>NodeJs</title><g id="a3c7f6ed-ea37-4f61-bc54-98bdaa9579ba" data-name="NodeJs"><g id="b280fca1-a8d2-4200-95b4-a89a4a6d98e0" data-name="katman 27"><path d="M166.74893,31.24042S124.25,6.63655,124.21663,6.61753a17.56115,17.56115,0,0,0-16.82684,0c-.03339.019-42.52024,24.6164-42.52024,24.6164a17.07608,17.07608,0,0,0-8.5085,14.76047V95.01893a17.09321,17.09321,0,0,0,8.53633,14.77763L76.0627,116.177q.22264.12662.4527.23933c5.55947,2.72454,8.63,3.33123,11.64307,3.45461a9.74965,9.74965,0,0,0,5.00287,5.86467l14.05034,8.34523c.09741.05752.19667.1141.29685.16791a17.34492,17.34492,0,0,0,8.29514,2.13455,18.8516,18.8516,0,0,0,7.85265-1.70133c.22542-.1039.44528-.21893.66049-.34324l42.42284-24.55981a17.08147,17.08147,0,0,0,8.50665-14.76V45.9944A17.07417,17.07417,0,0,0,166.74893,31.24042Z" style="fill:#fff;stroke:#549e42;stroke-miterlimit:10;stroke-width:0.9499242509252355px"/></g><path d="M115.80335,128.30524a9.32581,9.32581,0,0,1-4.46648-1.1698L97.193,118.73421c-2.12689-1.16978-1.06345-1.59515-.42538-1.80785a25.76286,25.76286,0,0,0,6.38068-2.8713.97823.97823,0,0,1,1.06345.10634l10.84715,6.487a1.35145,1.35145,0,0,0,1.27614,0l42.4315-24.5656a1.22167,1.22167,0,0,0,.63807-1.16979V45.88816a1.22167,1.22167,0,0,0-.63807-1.1698L116.33508,20.2591a1.3515,1.3515,0,0,0-1.27614,0L72.62743,44.71836a1.33427,1.33427,0,0,0-.63806,1.1698V94.913a1.33428,1.33428,0,0,0,.63806,1.16979L84.219,102.78253c6.27433,3.19034,10.20908-.53172,10.20908-4.25379V50.14194a1.29312,1.29312,0,0,1,1.27614-1.27614h5.42357a1.29313,1.29313,0,0,1,1.27614,1.27614v48.3868c0,8.40123-4.57282,13.29308-12.54867,13.29308-2.44592,0-4.36013,0-9.7837-2.65862l-11.16619-6.38067a8.975,8.975,0,0,1-4.46647-7.76316V45.9945a8.975,8.975,0,0,1,4.46647-7.76316l42.4315-24.56561a9.49129,9.49129,0,0,1,8.93295,0l42.43151,24.56561a8.975,8.975,0,0,1,4.46647,7.76316V95.01937a8.975,8.975,0,0,1-4.46647,7.76316l-42.43151,24.5656a10.88422,10.88422,0,0,1-4.46647.95711ZM128.88374,94.594c-18.61031,0-22.43872-8.50757-22.43872-15.739a1.29312,1.29312,0,0,1,1.27614-1.27613h5.52992a1.093,1.093,0,0,1,1.16979,1.06345c.85076,5.63626,3.29668,8.40122,14.56921,8.40122,8.933,0,12.76136-2.02055,12.76136-6.806,0-2.765-1.06345-4.78551-14.99459-6.168-11.59157-1.16979-18.823-3.72206-18.823-12.974,0-8.61392,7.23143-13.71846,19.35472-13.71846,13.61211,0,20.31182,4.67916,21.16258,14.88825a1.71519,1.71519,0,0,1-.319.9571,1.31278,1.31278,0,0,1-.85075.42537h-5.52992a1.246,1.246,0,0,1-1.1698-.95709c-1.27613-5.849-4.57281-7.76316-13.29307-7.76316-9.78371,0-10.95349,3.403-10.95349,5.9553,0,3.084,1.38247,4.04109,14.56921,5.74261,13.08038,1.70151,19.24837,4.14744,19.24837,13.29308-.10634,9.35832-7.76315,14.67555-21.26892,14.67555Z" style="fill:#549e42"/></g></svg>