<svg xmlns="http://www.w3.org/2000/svg" viewBox="0 0 226.77165 141.73228"><title>Npm</title><g id="b67a2bc2-952f-4093-b5fe-f87d13195570" data-name="Npm"><g id="a19cad26-f2be-42d9-bd30-a74f4b11b792" data-name="katman 29"><path d="M219.00049,29.91631a8.50044,8.50044,0,0,0-6.01319-2.49121H13.33105a8.504,8.504,0,0,0-8.5039,8.5039l-.00049,66.71973a8.50469,8.50469,0,0,0,8.50391,8.50391H60.33008v2.63476a8.504,8.504,0,0,0,8.5039,8.50391h44.3252a8.504,8.504,0,0,0,8.50391-8.50391v-2.63476h91.32373a8.504,8.504,0,0,0,8.5039-8.50391l.00049-66.71973A8.50382,8.50382,0,0,0,219.00049,29.91631Z" style="fill:#fff;stroke:#cb3a39;stroke-miterlimit:10"/></g><g id="a60adfca-31e6-448c-8f07-71bd496162c8" data-name="layer1"><path id="a5bb30a7-40fb-4188-8b29-a4d20d4dc311" data-name="path4951" d="M68.8338,113.7874V102.64829H13.33071l.00016-66.71913H212.98721l-.00016,66.71913H113.159V113.7874Z" style="fill:#cb3a38"/><path id="a3bd5f2c-e668-4ca3-a780-c3d44d0be449" data-name="path4949" d="M102.36681,102.64829V91.4321h21.96991V47.14538H80.08855v55.50291Z" style="fill:#fff"/><path id="bf725f6d-d881-48dc-844d-db12f1391f78" data-name="path4947" d="M102.36681,58.28449H113.159V80.2544H102.36681Z" style="fill:#cb3a38"/><path id="a98a141e-1b7c-44ee-adc7-0f1aaca15a1c" data-name="path4945" d="M46.47846,91.43205V58.28446H57.65612V91.43205H68.8338V47.14533H24.58954V91.43205Z" style="fill:#fff"/><path id="e097b745-69cc-4874-9be1-444b315a8b31" data-name="path2998" d="M157.4843,91.43205V58.28446H168.662V91.43205h11.17768V58.28446h11.17767V91.43205H202.195V47.14533H135.51578V91.43205Z" style="fill:#fff"/></g></g></svg>