<svg xmlns="http://www.w3.org/2000/svg" viewBox="0 0 226.77165 141.73228"><title>Pardus</title><g id="bf73b250-2796-42de-8509-07debf8ebbb9" data-name="Pardus"><g id="e93cb935-c4d7-4f54-95d2-e7ce00d3de5c" data-name="katman 16"><path d="M132.21457,15.27953c-6.07471-6.36271-14.42863-10.216-22.549-9.654L63.89592,8.775c-13.44819.9263-23.983,13.41471-23.983,28.43205v65.58367c0,15.01956,10.53535,27.50853,23.98354,28.4326l45.76906,3.15168c8.121.55879,16.47369-3.2946,22.54749-9.65473l20.03809,1.16507c12.37569.71928,25.49466-7.80274,29.86727-19.39944l7.19172-19.0624a50.95319,50.95319,0,0,0,2.80124-17.42406,50.95766,50.95766,0,0,0-2.80236-17.428L182.11951,33.513c-4.37485-11.59893-17.49493-20.11984-29.86727-19.39777Z" style="fill:#fff;stroke:#1d1d1b;stroke-width:1.1428176595566555px"/></g><path d="M64.564,18.4696c-8.21247.56569-14.93283,8.99832-14.93283,18.73746v65.58357c0,9.74147,6.72036,18.173,14.93283,18.73726l45.76881,3.15154c8.2127.56526,17.30822-6.42884,20.21008-15.54155L137.73224,86.57c2.90418-9.11445,2.90418-24.02684,0-33.14089l-7.18938-22.566c-2.90186-9.11441-11.99738-16.11009-20.21008-15.5429Z" style="fill:#fff5d8;stroke:#1d1d1b;stroke-width:3.957586538943399px"/><path d="M74.17212,100.20072a4.834,4.834,0,0,1,4.84875,4.84894v.99864a.8708.8708,0,0,0,.97065.99839h3.88465a1.92085,1.92085,0,0,1,1.94262,1.93875v.97006a1.86555,1.86555,0,0,1-.5655,1.37772,1.88905,1.88905,0,0,1-1.38561.56143h-22.435a4.65256,4.65256,0,0,1-3.433-1.42711,4.73505,4.73505,0,0,1-1.41592-3.46174v-1.95614a4.835,4.835,0,0,1,4.84889-4.84894Zm-1.01981,4.87479H62.43556a.98565.98565,0,0,0,0,1.97118H73.15231a.98565.98565,0,0,0,0-1.97118Z" style="fill:#1d1d1b"/><path d="M80.96985,85.78148a4.83367,4.83367,0,0,1,4.84894,4.8489v1.99648a4.833,4.833,0,0,1-4.84894,4.84835h-1.949a4.83335,4.83335,0,0,1-4.84875-4.84835v-.98572a.86878.86878,0,0,0-.97951-.98567H62.4122a.97412.97412,0,1,0-.00307,1.94823h7.81543A1.932,1.932,0,0,1,72.179,94.55308v.97334a1.93066,1.93066,0,0,1-1.95,1.94879H61.45684a4.70926,4.70926,0,0,1-3.44961-1.41553,4.66217,4.66217,0,0,1-1.42343-3.43282V90.63038a4.66472,4.66472,0,0,1,1.42437-3.433,4.71865,4.71865,0,0,1,3.45251-1.41592Zm-.99784,4.874a.97412.97412,0,1,0,.97528.97394A.86032.86032,0,0,0,79.972,90.65547Z" style="fill:#1d1d1b"/><path d="M70.229,71.36279a1.88876,1.88876,0,0,1,1.38431.56217,1.86584,1.86584,0,0,1,.56566,1.37677v.97007a1.865,1.865,0,0,1-.56685,1.37731,1.89338,1.89338,0,0,1-1.38756.56183H62.40913a.99878.99878,0,0,0-.00095,1.997h21.4595a1.89,1.89,0,0,1,1.38561.56237,1.8645,1.8645,0,0,1,.5655,1.37637v.97046a1.86264,1.86264,0,0,1-.5655,1.37677,1.88527,1.88527,0,0,1-1.38388.56257H61.45625a4.858,4.858,0,0,1-4.87245-4.87265V76.235a4.85867,4.85867,0,0,1,4.873-4.87225Z" style="fill:#1d1d1b"/><path d="M80.96985,56.9431a4.83141,4.83141,0,0,1,4.84894,4.84836v4.88928A1.93271,1.93271,0,0,1,83.86941,68.637H58.53258a1.93231,1.93231,0,0,1-1.94878-1.95629V61.79146a4.83206,4.83206,0,0,1,4.84889-4.84836ZM79.972,61.81694H62.43556a.98573.98573,0,0,0,0,1.97135H79.972a.98573.98573,0,0,0,0-1.97135Z" style="fill:#1d1d1b"/><path d="M80.96985,42.52347a4.834,4.834,0,0,1,4.84894,4.84835v1.99683a4.83393,4.83393,0,0,1-4.84894,4.84949h-22.435A1.93189,1.93189,0,0,1,56.5838,52.2688v-.97468a1.93088,1.93088,0,0,1,1.94878-1.94823H79.972a.97449.97449,0,1,0,0-1.949H58.53258a1.92966,1.92966,0,0,1-1.94878-1.94977v-.97355a1.93133,1.93133,0,0,1,1.95106-1.95012Z" style="fill:#1d1d1b"/><path d="M80.96985,28.10418a4.83335,4.83335,0,0,1,4.84894,4.84875v4.88889a1.93331,1.93331,0,0,1-1.94938,1.95629h-.9737a1.93029,1.93029,0,0,1-1.94842-1.949V33.95231a.96337.96337,0,1,0-1.92642.01083V34.949a4.83367,4.83367,0,0,1-4.84875,4.8491H61.43269A4.83467,4.83467,0,0,1,56.5838,34.949V32.95293a4.834,4.834,0,0,1,4.84889-4.84875h8.79187A1.93238,1.93238,0,0,1,72.179,30.05356v.97508a1.92965,1.92965,0,0,1-1.949,1.949H62.43556a.97432.97432,0,1,0,0,1.94863H73.15231a.86724.86724,0,0,0,.975-.98706v-.98626a4.65651,4.65651,0,0,1,1.42715-3.433,4.73342,4.73342,0,0,1,3.46095-1.41573Z" style="fill:#1d1d1b"/><path d="M107.047,26.47663a16.094,16.094,0,0,0-14.93326,15.825V97.69612A16.09384,16.09384,0,0,0,107.047,113.52184l45.76882,2.66131c8.214.47786,17.30723-5.4295,20.21083-13.12783l7.19-19.0598c2.90171-7.698,2.90171-20.29479,0-27.99312l-7.19-19.06c-2.9036-7.696-11.99683-13.60434-20.21083-13.12585Z" style="fill:#fc0;stroke:#1d1d1b;stroke-width:3.957586538943399px"/><polygon points="107.944 89.449 103.149 101.438 111.142 107.565 125.261 98.507 107.944 89.449" style="fill:#fff7e2"/><polygon points="107.944 50.55 103.149 38.561 111.142 32.433 125.261 41.492 107.944 50.55" style="fill:#fff7e2"/><path d="M129.45011,42.334l-17.73768,9.31932a4.13119,4.13119,0,0,0-1.66576,2.13461l-.04283.17326-3.33673,14.02064a10.04031,10.04031,0,0,0-.00735,3.70234l3.35661,14.35428.04207.17844a4.07992,4.07992,0,0,0,1.654,2.12612l17.73768,9.31971,2.45217,1.29031a6.3791,6.3791,0,0,0,3.20958.51319l15.5649-2.58952a2.02475,2.02475,0,0,0,1.354-1.23183l1.78019-7.05183c-.693.17361-1.41513-1.42576-2.09928-1.42308l-7.82682-3.59043a1.98173,1.98173,0,0,1,.414.03647l6.965,1.34626a4.49413,4.49413,0,0,0,2.756-.59249l1.04956-.74528,4.94286-3.50323,7.26385-5.14375a3.28648,3.28648,0,0,0,1.12247-2.157V67.17733a3.27689,3.27689,0,0,0-1.12247-2.15428l-7.19284-5.09645-4.961-3.516-1.10243-.77985a4.48126,4.48126,0,0,0-2.756-.59269l-6.965,1.34551a2.224,2.224,0,0,1-.41152.03552l7.826-3.59008c.69225.00119,1.42441-1.59475,2.13054-1.41727l-1.80662-7.05471a2.03539,2.03539,0,0,0-1.36053-1.234l-15.5649-2.5907a6.3536,6.3536,0,0,0-3.20958.51283Z" style="fill:#fff5d8"/><path d="M109.82442,31.13552a18.31886,18.31886,0,0,0-4.40867,2.58256,16.62725,16.62725,0,0,0-3.47624,3.79227c-.59288,1.03759.70383,5.781,1.801,8.18026l.79933,1.75107c1.098,2.39926,2.01224,4.39573,2.03137,4.43584a1.181,1.181,0,0,1-.09029.54021c-.09436.21957-.75168,2.88894-1.35246,5.45957l-1.075,4.60139c-.60079,2.571-1.1734,5.534-1.27278,6.58666A48.68068,48.68068,0,0,0,104.023,77.181l1.13211,4.92611c.5894,2.57194,1.12594,4.85472,1.19153,5.07061a8.678,8.678,0,0,1,.26315.86607c-.02315.0407-.972,2.1141-2.06993,4.51281l-.79933,1.74913a26.59047,26.59047,0,0,0-2.15753,6.58243c-.08973,1.22009,2.51116,4.34326,3.83276,5.39065a18.2882,18.2882,0,0,0,4.40981,2.58529c1.10512.37276,5.459-1.64841,7.64606-3.1253l4.47753-3.01858c2.18708-1.47476,4.71523-2.28776,5.61682-1.80334a24.27788,24.27788,0,0,0,3.57265,1.46958c1.06309.326,5.72217-.05058,8.32421-.49043l5.55353-.94307a29.21053,29.21053,0,0,0,6.66461-1.83883c1.06477-.572,2.94449-5.09759,3.57886-7.65972l.28417-1.14621a15.232,15.232,0,0,1,5.04631-7.46161l2.86309-2.06918a34.77965,34.77965,0,0,0,5.22186-4.47271c.73142-.91372,1.32991-4.78142,1.32991-6.30517a21.93566,21.93566,0,0,0-.57207-4.82559c-.31407-1.12866-3.83872-4.40964-5.9797-5.95192l-2.81832-2.03544a15.31493,15.31493,0,0,1-5.05789-7.45948l-.29982-1.19307a29.2941,29.2941,0,0,0-2.3522-6.501c-.65152-1.01677-5.30733-2.54747-7.90881-2.9893l-5.55234-.9411a49.65815,49.65815,0,0,0-6.75126-.74741A19.83769,19.83769,0,0,0,127.566,39.082c-.90159.48272-3.42974-.32953-5.61682-1.80389l-4.47753-3.01858C115.28454,32.78394,110.93068,30.76277,109.82442,31.13552Zm5.08353,71.75006c-1.945,1.31287-3.68207,2.44134-3.85727,2.51021h-.454a33.51064,33.51064,0,0,1-2.81872-2.09059,20.32656,20.32656,0,0,1-2.58027-2.28124,28.35569,28.35569,0,0,1,1.99742-5.13734l.17228-.3749a39.47114,39.47114,0,0,1,2.11821-4.28538c.06847.04323,2.15156,1.16475,4.47927,2.40934l3.94292,2.11047C120.235,96.99094,116.85483,101.57306,114.908,102.88558Zm18.01877-61.78519a50.6458,50.6458,0,0,1,5.90194.74935l5.55392.943a36.29851,36.29851,0,0,1,5.32317,1.15684c.32546.1929,1.10974,2.41547,1.58934,4.32126.47944,1.90848.558,3.40524.17789,3.33191a16.13127,16.13127,0,0,0-5.13834,2.45794c-2.07494,1.42809-3.71351,2.59453-3.64117,2.59224.072-.00194,1.77631-.32724,3.62324-.69226a27.25544,27.25544,0,0,1,4.38649-.59,7.04917,7.04917,0,0,1,2.16373.89369c.29286.21182,1.60846,1.161,2.92347,2.1118,1.3158.95154,3.9545,2.85228,5.86219,4.23018a32.72147,32.72147,0,0,1,4.011,3.23084,12.948,12.948,0,0,1,.54175,4.1623,18.46671,18.46671,0,0,1-.27512,3.63789c-.1507.47423-2.38484,2.39062-4.31126,3.7803-1.92678,1.39024-4.57591,3.3024-5.88744,4.24777-1.31157.9471-2.611,1.88358-2.88993,2.08691a8.04744,8.04744,0,0,1-1.4682.72794,18.64974,18.64974,0,0,1-5.05673-.44278c-1.84693-.36426-3.41777-.66965-3.49261-.67988-.07373-.01063,1.435,1.15024,3.51054,2.57793a19.03015,19.03015,0,0,0,4.45209,2.54783c.37311-.0243.96157,1.34378.48888,3.24822a23.47642,23.47642,0,0,1-1.25657,4.02492c-.21779.30867-3.03612,1.00962-5.63646,1.4514l-5.55392.94075a50.58244,50.58244,0,0,1-5.90194.74971,12.03292,12.03292,0,0,1-3.10772-1.08695c-.65057-.34691-3.08729-1.65208-5.41346-2.89707l-8.64887-4.62878a40.92985,40.92985,0,0,1-4.94733-2.9586,6.20954,6.20954,0,0,1-.89811-1.48231c-.01119-.04974-.504-2.19166-1.09275-4.764l-1.09161-4.75091c-.59055-2.57-1.12171-5.27919-1.18094-6.01811a47.49514,47.49514,0,0,1,1.20737-6.96711l1.03487-4.43087c.601-2.56984,1.102-4.711,1.114-4.75727.01-.04706.23826-.48079.50583-.96311.26782-.48312,3.02324-2.23569,5.34866-3.48048l8.64887-4.62918c2.32617-1.244,4.76289-2.54976,5.41346-2.897A11.95869,11.95869,0,0,1,132.92672,41.10039Zm-21.876-6.4983c.1752.06871,1.91231,1.2,3.85727,2.5112,1.94688,1.31118,5.327,5.89325,2.99988,7.13729l-3.94292,2.11182c-2.32771,1.24672-4.28692,2.2959-4.35564,2.33446a26.41457,26.41457,0,0,1-2.24184-4.21129l-.17228-.37351a42.1176,42.1176,0,0,1-2.00552-4.85839,10.60533,10.60533,0,0,1,2.58837-2.5602,34.13442,34.13442,0,0,1,2.81872-2.09138h.454Z" style="fill:#1d1d1b"/><path d="M146.461,76.70464a1.31467,1.31467,0,0,1-2.06455-1.27664V64.57083a1.31547,1.31547,0,0,1,2.06455-1.2772l6.45026,5.67408c1.13479.56763,1.13479,1.49368,0,2.063Z" style="fill:#1d1d1b"/><path d="M160.29436,69.99953c0-.00154.7015-.76673,1.55813-1.70436l3.36952-3.68692c.85469-.93917.94055-1.96364.18677-2.27733-.75322-.31408-1.95285.28476-2.66826,1.33389l-2.38171,3.49206c-.71557,1.04877-1.3241,1.90425-1.35247,1.9-.027-.00308-1.14408-.0077-2.41372-.0077h-6.50411a10.7157,10.7157,0,0,0-3.25842.42562v1.04874a10.716,10.716,0,0,0,3.25842.42562h6.50411c1.26964,0,2.33233-.00233,2.36243-.00347a21.301,21.301,0,0,1,1.40376,1.89575l2.38171,3.49221c.71541,1.04822,1.915,1.65,2.66826,1.33453.75378-.316.66792-1.33836-.18677-2.27717l-3.36952-3.68788C160.99586,70.76548,160.29436,69.99953,160.29436,69.99953Z" style="fill:#1d1d1b"/><path d="M129.39724,90.1959c.03956,1.36444.22843,1.375.42176.0247l1.61675-11.32291a2.63725,2.63725,0,0,1,2.81621-2.22351l5.05365,1.44524c1.35571.12213,2.50405-.301,2.55111-.94652a3.56261,3.56261,0,0,0-.01407-1.18134c-.05421-.00193-1.21239-.05515-2.57331-.11229l-4.743-1.18264c-1.36152-.05942-3.17161-.13639-4.02282-.17286-.85121-.03916-1.53786.321-1.52355.79755.01367.47656.05476,1.98142.09356,3.34408Z" style="fill:#1d1d1b"/><path d="M129.07352,61.33229c-.0388,1.36285-.07989,2.86811-.09356,3.34194-.01431.47889.67234.83928,1.52355.803.85121-.03667,2.6613-.11617,4.02282-.1748l4.743-1.18154c1.36092-.05938,2.5191-.11036,2.57331-.11652a3.54,3.54,0,0,0,.01407-1.17881c-.04706-.64591-1.1954-1.07074-2.55111-.94418l-5.05365,1.4431a2.6387,2.6387,0,0,1-2.81621-2.22331L129.819,49.778c-.19333-1.3478-.3822-1.3397-.42176.02434Z" style="fill:#1d1d1b"/><path d="M131.10816,80.01941a1.57036,1.57036,0,1,1-1.57025,1.57045A1.57022,1.57022,0,0,1,131.10816,80.01941Z" style="fill:#1d1d1b"/><path d="M131.10816,56.83583a1.57259,1.57259,0,1,1-1.57025,1.57239A1.57263,1.57263,0,0,1,131.10816,56.83583Z" style="fill:#1d1d1b"/><path d="M150.45817,76.24226A58.88017,58.88017,0,0,0,163.015,100.20142c.40765.463,1.04137-.11551.71394-.60562-5.10537-7.6419-9.50244-14.67885-12.18231-23.54547-.2009-.66472-1.26821-.50782-1.0885.19193Z" style="fill:#1d1d1b"/><path d="M153.54552,76.01676c.66562,7.14134,7.62071,13.89427,13.3527,17.60164.36827.23819.86319-.24423.53708-.58928-4.98244-5.27181-11.50527-9.54526-13.0044-17.16848a.44981.44981,0,0,0-.88538.15612Z" style="fill:#1d1d1b"/><path d="M156.54849,75.38705c1.84932,6.92093,9.95763,12.51028,16.23756,15.12414.4329.18018.72558-.4381.37-.70624-5.78119-4.36011-13.02523-7.4042-15.75879-14.68891-.17624-.46966-.98-.2198-.84881.271Z" style="fill:#1d1d1b"/><path d="M151.5208,64.043c2.67661-8.85115,7.14925-16.05449,12.2346-23.672.34253-.51308-.37712-.9798-.76678-.5369A58.74532,58.74532,0,0,0,150.484,63.65936c-.17394.67709.82813,1.07357,1.03676.38366Z" style="fill:#1d1d1b"/><path d="M154.43583,64.10274c1.48719-7.57222,8.001-11.85314,12.953-17.08691a.40226.40226,0,0,0-.52008-.6131c-5.70614,3.69791-12.665,10.486-13.32813,17.61518a.44993.44993,0,0,0,.89525.08483Z" style="fill:#1d1d1b"/><path d="M157.41282,64.84686c2.73115-7.27341,10-10.32479,15.77278-14.67622.377-.28415-.02676-.83853-.43257-.66968-6.23959,2.59628-14.34889,8.17017-16.1835,15.03383a.44988.44988,0,0,0,.84329.31207Z" style="fill:#1d1d1b"/><path d="M114.07064,82.329c1.75142,0,3.17276,1.13653,3.17276,2.53759,0,1.40146-1.42134,2.53977-3.17276,2.53977-1.75316,0-3.17354-1.13831-3.17354-2.53977C110.8971,83.46551,112.31748,82.329,114.07064,82.329Z" style="fill:#1d1d1b"/><path d="M120.16588,85.75271a2.11462,2.11462,0,1,1-2.1149,2.11335A2.11369,2.11369,0,0,1,120.16588,85.75271Z" style="fill:#1d1d1b"/><path d="M113.27245,76.116c1.33607.42539,2.24825,1.31114,2.03564,1.97984-.21282.66716-1.46725.86528-2.80367.4389-1.33623-.42345-2.24726-1.30959-2.0341-1.97695C110.68239,75.8899,111.93876,75.69254,113.27245,76.116Z" style="fill:#1d1d1b"/><path d="M120.81779,79.31135a1.49812,1.49812,0,1,1-1.2687,1.48092A1.3858,1.3858,0,0,1,120.81779,79.31135Z" style="fill:#1d1d1b"/><path d="M145.04086,48.10149a2.115,2.115,0,1,0-.94786-2.83611A2.11352,2.11352,0,0,0,145.04086,48.10149Z" style="fill:#1d1d1b"/><path d="M139.63688,47.6068c1.38522.21569,2.59683-.16939,2.7047-.86086.10742-.69494-.927-1.42963-2.31131-1.64841-1.38526-.21569-2.59627.16939-2.70355.86433C137.21771,46.65258,138.25222,47.3907,139.63688,47.6068Z" style="fill:#1d1d1b"/><path d="M142.85417,51.4986a1.49794,1.49794,0,1,0-.47383-1.89189A1.38638,1.38638,0,0,0,142.85417,51.4986Z" style="fill:#1d1d1b"/></g></svg>