<svg xmlns="http://www.w3.org/2000/svg" xmlns:xlink="http://www.w3.org/1999/xlink" viewBox="0 0 226.77165 141.73228"><defs><linearGradient id="eb0f6881-36ff-4c2f-81b3-84df64fd48c3" x1="72.32898" y1="113.63963" x2="162.2668" y2="28.42909" gradientUnits="userSpaceOnUse"><stop offset="0" stop-color="#ffe054"/><stop offset="1" stop-color="#fcc234"/></linearGradient><linearGradient id="f9f819c4-5b02-4753-9dcb-fdee4d98fcb1" x1="124.60076" y1="469.59223" x2="124.90278" y2="469.29255" gradientTransform="matrix(189.38342, 0, 0, -189.80576, -23527.01663, 89155.43362)" gradientUnits="userSpaceOnUse"><stop offset="0" stop-color="#3a7fba"/><stop offset="1" stop-color="#396a95"/></linearGradient><linearGradient id="ad0edbd2-6123-439f-a021-ab221b63c7c5" x1="124.43805" y1="469.73866" x2="124.76243" y2="469.43133" gradientTransform="matrix(189.38342, 0, 0, -189.8058, -23461.01619, 89219.70323)" xlink:href="#eb0f6881-36ff-4c2f-81b3-84df64fd48c3"/></defs><title>Python</title><g id="e5a12749-fe81-4145-be1d-75a289bbfdbb" data-name="Python"><g id="bb3e2195-9078-4e72-8b86-6598d1f1e5b2" data-name="katman 18"><path d="M158.94122,34.63775c-.1417,0-.26329.00183-.36385.00457h-5.4183V29.23041A18.41782,18.41782,0,0,0,148.5297,15.921c-5.9083-6.89058-16.55659-10.38455-31.64959-10.38455-15.22281,0-25.782,3.27868-31.38357,9.74462a16.03052,16.03052,0,0,0-4.10783,11.32844l.02148,8.81628H78.5566c-.29711-.01874-.67466-.03382-1.12306-.03382a23.76051,23.76051,0,0,0-15.673,6.10119c-6.80922,6.1405-10.26205,16.03-10.26205,29.393,0,35.51837,21.68327,36.54408,24.15565,36.54408.1417,0,.26328-.00183.36384-.00458h5.41785v5.41282a18.42376,18.42376,0,0,0,4.62846,13.30945c5.9083,6.89012,16.557,10.38409,31.6505,10.38409,15.22372,0,25.78242-3.27822,31.38448-9.74417a16.03255,16.03255,0,0,0,4.10738-11.32843l-.02194-8.81629h2.85313c.29711.0192.67466.03383,1.12261.03383a23.75977,23.75977,0,0,0,15.6735-6.10119c6.80967-6.14051,10.2625-16.03,10.2625-29.39341C183.09641,35.663,161.41314,34.63775,158.94122,34.63775Z" style="fill:#fff;stroke-miterlimit:10;stroke-width:0.9361132979393005px;stroke:url(#eb0f6881-36ff-4c2f-81b3-84df64fd48c3)"/></g><path d="M116.88041,13.497c-29.36591,0-27.53212,12.73484-27.53212,12.73484L89.381,39.425h28.02318v3.96122H78.25033s-18.79125-2.1311-18.79125,27.49939S75.8605,99.46535,75.8605,99.46535H85.649V85.71566s-.52762-16.40142,16.13952-16.40142h27.794s15.61572.25243,15.61572-15.09192V28.85087S147.56913,13.497,116.88041,13.497Zm-15.452,8.87183a5.04156,5.04156,0,1,1-5.04155,5.04155,5.03678,5.03678,0,0,1,5.04155-5.04155Z" style="fill:url(#f9f819c4-5b02-4753-9dcb-fdee4d98fcb1)"/><path d="M117.7144,128.57132c29.36593,0,27.53212-12.73483,27.53212-12.73483l-.03273-13.19315H117.19061V98.68211h39.15388s18.79124,2.1311,18.79124-27.49939S158.73431,42.603,158.73431,42.603h-9.78846V56.3527s.52763,16.40142-16.13953,16.40142h-27.794s-15.61571-.25243-15.61571,15.09193V113.2175s-2.3709,15.35382,28.31781,15.35382Zm15.452-8.87182A5.04155,5.04155,0,1,1,138.208,114.658a5.03679,5.03679,0,0,1-5.04156,5.04155Z" style="fill:url(#ad0edbd2-6123-439f-a021-ab221b63c7c5)"/></g></svg>