<svg xmlns="http://www.w3.org/2000/svg" viewBox="0 0 226.77165 141.73228"><title>Redis</title><g id="b994630d-6de1-4778-ac4f-6ea7f72c28fe" data-name="Redis"><g id="aed3eef2-d7de-4791-b9bf-317b5a7f5bb0" data-name="katman 31"><path d="M184.05007,79.47134a9.7328,9.7328,0,0,0,1.04957-4.42114l.0032-13.69822c0-.08552-.01688-.1675-.01957-.25252-.00349-.11819.00767-.22964-.00011-.34978-.01207-.187-.04726-.35858-.06865-.53942-.00652-.0452-.01-.09079-.01728-.13576a9.40691,9.40691,0,0,0-1.17479-3.50328,9.75585,9.75585,0,0,0,1.2772-4.83774l.0032-13.69822c0-.08529-.01682-.1671-.01951-.252-.00355-.11905.00767-.23118-.00017-.35218-.01213-.18759-.04743-.35967-.06894-.54108-.00629-.04354-.00961-.08753-.01665-.13084-.85888-6.51329-7.64123-9.01672-10.60113-10.10084-3.4765-1.27325-14.81128-5.72734-25.7726-10.03407C136.96365,12.043,125.95061,7.7152,122.23658,6.355c-9.55535-3.50213-14.62639-2.91631-24.11674.48971C90.12837,9.71249,55.475,23.288,44.08762,27.74947l-2.06182.80826c-2.64954,1.03692-9.50145,3.73955-10.25542,10.30667q-.04582.32463-.06527.656c-.00235.047-.0119.08948-.01362.13685-.00137.03747.00395.07151.003.10881-.002.07231-.00939.14342-.00939.21613V53.88a9.51039,9.51039,0,0,0,1.23235,4.70885,9.49585,9.49585,0,0,0-1.14682,3.59143q-.04617.32627-.06556.65928c-.00235.0468-.01184.08914-.01356.13628-.00137.03724.00395.07111.003.10818-.002.07225-.00939.14325-.00939.21585V77.19761a9.475,9.475,0,0,0,1.018,4.2906,9.48648,9.48648,0,0,0-.933,3.181q-.04548.32276-.06494.652c-.00234.0472-.01195.08993-.01367.13753-.00137.0377.00395.07191.003.10939-.002.07242-.00939.14365-.00939.21648V99.68045c0,6.9649,7.07017,10.34529,10.08991,11.7888,3.95065,1.88837,16.08408,6.91913,28.92965,12.24464,10.95857,4.5438,22.29015,9.24229,25.19181,10.629a26.61281,26.61281,0,0,0,11.64646,2.9758c4.47378,0,9.0336-1.395,14.45384-4.22068,3.88063-2.02292,16.32436-7.3704,27.30308-12.089,11.46064-4.92459,22.28557-9.5764,26.12913-11.5801,2.89525-1.5085,9.67525-5.04083,9.67068-11.895l.0032-13.6973c0-.08547-.01688-.16745-.01957-.25246-.00349-.11826.00767-.22964-.00011-.34984-.01207-.18707-.04731-.3587-.06871-.5396-.00652-.04525-.01007-.0909-.01733-.136A9.43056,9.43056,0,0,0,184.05007,79.47134Z" style="fill:#fff;stroke:#9b2a28;stroke-miterlimit:10;stroke-width:0.9373188018798828px"/></g><path d="M171.74553,102.361c-7.33639,3.82421-45.34214,19.45077-53.43359,23.66862-8.09093,4.21892-12.58589,4.1781-18.97764,1.12239s-46.83671-19.39276-54.12208-22.87488c-3.64161-1.74052-5.55613-3.2093-5.55613-4.597V85.78444s52.65383-11.463,61.15451-14.51222c8.50014-3.0498,11.44952-3.15989,18.68334-.51018,7.23436,2.65026,50.48852,10.45441,57.638,13.073,0,0-.00322,12.41081-.00322,13.69915.00107,1.37373-1.64869,2.88064-5.38322,4.82684" style="fill:#922727"/><path d="M171.743,88.54726c-7.33616,3.82247-45.34069,19.4496-53.43189,23.66731-8.09066,4.21932-12.58547,4.178-18.977,1.12236-6.39208-3.05346-46.83519-19.39321-54.12033-22.8736-7.28514-3.48254-7.43819-5.87924-.2814-8.68138,7.15626-2.80322,47.37758-18.58339,55.87906-21.6331,8.49987-3.04863,11.44861-3.15979,18.68221-.50909,7.23412,2.64963,45.012,17.68658,52.16076,20.30453,7.15035,2.62117,7.42477,4.77889.08861,8.603" style="fill:#c6322b"/><path d="M171.74553,79.87677c-7.33639,3.8242-45.34214,19.45075-53.43359,23.67022-8.09093,4.21731-12.58589,4.17649-18.97764,1.12079C92.942,101.61367,52.49759,85.275,45.21222,81.7929c-3.64161-1.74052-5.55613-3.20769-5.55613-4.59538V63.3002S92.30992,51.8378,100.8106,48.788c8.50014-3.04927,11.44952-3.1599,18.68334-.51018,7.23436,2.65025,50.48852,10.45279,57.638,13.0719,0,0-.00322,12.4108-.00322,13.70075.00107,1.37319-1.64869,2.88011-5.38322,4.82631" style="fill:#922727"/><path d="M171.743,66.063c-7.33616,3.82354-45.34069,19.44959-53.43189,23.66891-8.09066,4.21772-12.58547,4.17637-18.977,1.12076C92.942,87.79923,52.49888,71.46,45.21374,67.97909c-7.28514-3.48146-7.43819-5.8787-.2814-8.68191,7.15626-2.80161,47.37758-18.58286,55.87906-21.632,8.49987-3.04916,11.44861-3.15979,18.68221-.50962,7.23412,2.64963,45.012,17.6855,52.16076,20.30452,7.15035,2.6201,7.42477,4.77889.08861,8.60244V66.063" style="fill:#c6322b"/><path d="M171.74553,56.55861c-7.33639,3.8242-45.34214,19.4513-53.43359,23.67076-8.09093,4.21785-12.58589,4.1765-18.97764,1.12078C92.942,78.296,52.49759,61.95686,45.21222,58.47582c-3.64161-1.74106-5.55613-3.20877-5.55613-4.59539V39.98258S92.30992,28.52071,100.8106,25.47144c8.50014-3.0498,11.44952-3.15989,18.68334-.51018,7.23436,2.65025,50.48852,10.45279,57.638,13.0719,0,0-.00322,12.41081-.00322,13.70022.00107,1.37212-1.64869,2.879-5.38322,4.82523" style="fill:#922727"/><path d="M171.743,42.74487c-7.33616,3.82355-45.34069,19.45067-53.43189,23.66893-8.09066,4.21771-12.58547,4.17636-18.977,1.12182S52.49888,48.14294,45.21374,44.66148s-7.43819-5.87924-.2814-8.68192c7.15626-2.80214,47.37758-18.58178,55.87906-21.632,8.49987-3.04971,11.44861-3.15926,18.68221-.50909,7.23412,2.65017,45.012,17.686,52.16076,20.30506,7.15035,2.61848,7.42477,4.77782.08861,8.60136" style="fill:#c6322b"/><path d="M125.19346,29.227l-11.81919,1.22716-2.64615,6.36652-4.274-7.10452L92.80617,28.4895,102.99,24.81708,99.93467,19.1795l9.53432,3.7289,8.98869-2.94294-2.42928,5.8294,9.16506,3.4321" style="fill:#fff"/><path d="M110.02209,60.11481l-22.059-9.14907,31.60933-4.85162-9.55031,14.00069" style="fill:#fff"/><path d="M79.439,32.76564c9.33077,0,16.89461,2.93228,16.89461,6.54875,0,3.617-7.56384,6.54876-16.89461,6.54876-9.33025,0-16.89462-2.93176-16.89462-6.54876,0-3.61647,7.56437-6.54875,16.89462-6.54875" style="fill:#fff"/><path d="M139.16218,30.96726l18.70738,7.39279-18.69139,7.38534-.016-14.77813" style="fill:#621a1c"/><path d="M118.46567,39.154l20.69651-8.18674.016,14.77813-2.0291.79394L118.46567,39.154" style="fill:#9b2a28"/></g></svg>