<svg xmlns="http://www.w3.org/2000/svg" viewBox="0 0 226.77165 141.73228"><title>SAP</title><g id="acbfb633-f8d5-4998-9613-e15305aebdd8" data-name="SAP"><g id="a6ec08e6-8a60-4aaa-8cff-79a264348f17" data-name="katman 21"><path d="M219.85645,18.78076A8.50381,8.50381,0,0,0,212,13.53125H16.07031a8.50365,8.50365,0,0,0-8.5039,8.50391v96.87793a8.504,8.504,0,0,0,8.5039,8.5039h99.04688a8.50335,8.50335,0,0,0,6.01269-2.49023l8.5763-8.57593a14.84592,14.84592,0,1,0,18.04516-18.04431L218.0127,28.04834A8.503,8.503,0,0,0,219.85645,18.78076ZM24.57422,110.40918V107.1004a52.372,52.372,0,0,0,16.13232,2.57733c.02491,0,1.15869-.00976,1.15869-.00976a38.71513,38.71513,0,0,0,11.48584-1.874,8.49435,8.49435,0,0,0,3.72071.85742h17.5083a8.50473,8.50473,0,0,0,8.0791-5.84864l.55615-1.69335a42.93332,42.93332,0,0,0,8.87158.02832l.52,1.61523a8.503,8.503,0,0,0,8.09473,5.89844H113.3526l-1.75787,1.75781ZM167.417,54.58966c-2.02057-11.56189-10.32361-22.85187-35.04687-22.85187L113.084,31.73486a8.50431,8.50431,0,0,0-8.35693,6.92871l-.49853-1.35742a8.5043,8.5043,0,0,0-7.98243-5.57129H79.542a8.50382,8.50382,0,0,0-7.96191,5.5166l-.55567,1.48047a8.4941,8.4941,0,0,0-2.52148-1.94433,60.66334,60.66334,0,0,0-25.72656-6.07617A38.45473,38.45473,0,0,0,24.57422,34.963V30.53906H191.46875Z" style="fill:#fff;stroke:#002169"/></g><g id="a5c02485-c2e8-4512-b25c-3bf4b0b21d17" data-name="katman 19"><polyline points="16.07 118.913 115.117 118.913 212 22.035 16.07 22.035 16.07 118.913" style="fill:#002169;fill-rule:evenodd"/><path d="M132.3694,40.24146l-19.2854-.0026V86.06613L96.24618,40.23886H79.54182L65.16255,78.562C63.6413,68.90815,53.6398,65.57079,45.755,63.0731c-5.19-1.67714-10.68291-4.14142-10.63563-6.842.0389-2.23342,2.95079-4.2887,8.73595-3.98264,3.86589.19745,7.28966.51159,14.087,3.8019l6.71957-11.67575a52.34688,52.34688,0,0,0-21.84677-5.15918h-.0389c-8.21314,0-15.0497,2.65051-19.2854,7.045A16.23241,16.23241,0,0,0,18.8767,57.4995,15.08812,15.08812,0,0,0,25.496,70.96342c3.84658,2.8119,8.76386,4.65072,13.11112,5.99383,5.34275,1.65785,9.72052,3.09546,9.662,6.17711a4.37241,4.37241,0,0,1-1.26525,3.00385c-1.33243,1.37362-3.37679,1.89419-6.21058,1.96048-5.46523.09739-9.52048-.75632-15.97029-4.55852L18.8767,95.35836a44.51945,44.51945,0,0,0,21.83006,5.81515l1.00129-.00809c6.75014-.12508,12.21532-2.05788,16.59309-5.5765.23635-.20288.46178-.39484.68974-.5868l-1.919,5.14531H74.58015l2.93119-8.91982a33.41613,33.41613,0,0,0,20.34228.07261l2.84819,8.84721h28.55826V81.64657h6.22155c15.04911,0,23.97472-7.66548,23.97472-20.52037,0-14.31534-8.661-20.88474-27.08694-20.88474M87.80484,79.47684a17.42286,17.42286,0,0,1-6.17138-1.09579l6.116-19.27672h.11387l5.99353,19.33782A17.67124,17.67124,0,0,1,87.80484,79.47684Zm45.699-11.08867h-4.24378V52.84908h4.24378c5.66292,0,10.17415,1.87748,10.17415,7.68738,0,5.97712-4.51123,7.85171-10.17415,7.85171" style="fill:#fff;fill-rule:evenodd"/><path d="M138.95,112.5795a5.1229,5.1229,0,1,1,5.14247,5.28768A5.10188,5.10188,0,0,1,138.95,112.5795m5.14247,6.33625a6.28946,6.28946,0,1,0-6.38872-6.33625A6.30031,6.30031,0,0,0,144.09249,118.91575Zm-1.33219-5.81055h1.25663l1.9305,3.126h1.218l-2.06077-3.19a1.87019,1.87019,0,0,0,1.8717-1.98c0-1.44346-.8399-2.08043-2.56166-2.08043h-2.74219v7.25047h1.08776Zm0-.93724v-2.26081H144.262c.74817,0,1.55231.17525,1.55231,1.09006,0,1.09868-.82374,1.17075-1.73046,1.17075Z" style="fill:#002169"/></g></g></svg>