<svg xmlns="http://www.w3.org/2000/svg" viewBox="0 0 226.77165 141.73228"><title>Typescript</title><g id="b0da9b48-f908-4630-8d28-9a28a4fea78c" data-name="Typescript"><g id="a2ded920-2650-4098-8d02-4f1ff9b8264e" data-name="katman 25"><path d="M222.28343,63.16833V61.08141a8.50671,8.50671,0,0,0-6.81152-8.33545,8.5034,8.5034,0,0,0-11.15234-7.19238l-2.27149.75732a8.50461,8.50461,0,0,0-5.72461,6.82618,20.23508,20.23508,0,0,0-13.5166-.05957,8.39032,8.39032,0,0,0-1.501-.42237v-.04736a10.18046,10.18046,0,0,0-3.62695-7.85938c-.16308-.13623-.332-.26611-.50488-.39013a10.731,10.731,0,0,0-6.332-2.08789,10.47107,10.47107,0,0,0-6.77344,2.478,10.17942,10.17942,0,0,0-3.62793,7.85889q-.36913.10694-.73047.23242a8.50117,8.50117,0,0,0-2.33691-.32519h-2.27735a8.505,8.505,0,0,0-2.3291.32275,22.44135,22.44135,0,0,0-6.52344-.95508,21.59947,21.59947,0,0,0-8.63281,1.7251V51.21667a8.50383,8.50383,0,0,0-5.8164-8.06787,28.68541,28.68541,0,0,0-9.0752-1.51075,19.715,19.715,0,0,0-13.60449,4.84912,17.53027,17.53027,0,0,0-4.49121,6.2378,20.85175,20.85175,0,0,0-5.55469-.71631,19.20923,19.20923,0,0,0-12.60547,4.54883,17.97257,17.97257,0,0,0-12.5625-4.6753,19.23689,19.23689,0,0,0-6.36133,1.043,8.50228,8.50228,0,0,0-2.61816-.41064H60.81078a8.52944,8.52944,0,0,0-1.23633.08935,8.49544,8.49544,0,0,0-1.22949-.08935H54.04515a8.50479,8.50479,0,0,0-6.85351,3.46826,8.54732,8.54732,0,0,0,.11718-1.41455v-3.794a8.504,8.504,0,0,0-8.5039-8.5039h-24.915A8.504,8.504,0,0,0,5.386,50.77428v3.794a8.504,8.504,0,0,0,8.50391,8.5039h1.80371V86.69225a8.50428,8.50428,0,0,0,8.50391,8.50391h2.30957V98.454a8.50542,8.50542,0,0,0,6.25781,8.20215,18.59814,18.59814,0,0,0,4.90137.61816c3.69238,0,10.03613-1.27929,14.64062-8.97754V98.454a8.50428,8.50428,0,0,0,8.50391,8.50391h4.11035A8.50428,8.50428,0,0,0,73.425,98.454V95.69128a18.85559,18.85559,0,0,0,12.14453-4.61719A19.48637,19.48637,0,0,0,98.87914,95.829a25.08464,25.08464,0,0,0,10.44238-2.07715,28.40429,28.40429,0,0,0,4.02148,1.16309,27.59635,27.59635,0,0,0,6.21485.78711c5.27051,0,9.63672-1.37793,12.998-4.09864A19.52161,19.52161,0,0,0,145.04125,95.829a22.50916,22.50916,0,0,0,7.09277-1.09961,8.48228,8.48228,0,0,0,2.96191.53027h2.27735a8.478,8.478,0,0,0,6.19531-2.67871,8.48276,8.48276,0,0,0,5.40918,2.585v3.35157a8.50427,8.50427,0,0,0,8.50391,8.5039H179.758a8.50427,8.50427,0,0,0,8.50391-8.5039v-2.627c.03223.001.06445.001.09668.001A18.43693,18.43693,0,0,0,200.4055,91.6776,14.08316,14.08316,0,0,0,210.428,95.63854a16.25887,16.25887,0,0,0,6.98828-1.63867,8.50248,8.50248,0,0,0,4.86718-7.68652V84.22643a8.5067,8.5067,0,0,0-6.7666-8.32519V71.4945A8.50679,8.50679,0,0,0,222.28343,63.16833Z" style="fill:#fff;stroke:#2178bd;stroke-miterlimit:10"/></g><path d="M38.80484,54.56827H28.4341v32.124H24.19727v-32.124H13.88976V50.77409H38.80484Zm19.54,6.4501L46.51966,90.80264c-2.08679,5.31184-5.05889,7.96776-8.85307,7.96776a10.16793,10.16793,0,0,1-2.65592-.31618v-3.6677a7.20745,7.20745,0,0,0,2.403.44265c2.08679,0,3.60446-1.26472,4.67948-3.73094L44.11669,86.629,34.12536,61.01837h4.553l6.956,19.7297c.06323.25295.25294.88531.50589,1.96033h.12647c.06324-.37942.25294-1.01178.50589-1.89709l7.27217-19.79294Zm6.703,21.943h-.12648V98.45422H60.81106V61.01837h4.11035v4.48977h.12648A9.72687,9.72687,0,0,1,73.901,60.386a9.37523,9.37523,0,0,1,7.71482,3.41476c1.83385,2.2765,2.78239,5.37508,2.78239,9.23249,0,4.30006-1.075,7.71482-3.1618,10.30751a10.346,10.346,0,0,1-8.5369,3.85741,8.28008,8.28008,0,0,1-7.65158-4.23683Zm-.06324-10.30751V76.2583a7.44406,7.44406,0,0,0,2.08679,5.37508,6.91968,6.91968,0,0,0,5.24861,2.21327A7.02485,7.02485,0,0,0,78.201,81.001q2.0868-2.84563,2.0868-7.96777c0-2.84563-.63236-5.12213-1.96033-6.703a6.47068,6.47068,0,0,0-5.37508-2.403,7.28069,7.28069,0,0,0-5.75449,2.46622,8.82793,8.82793,0,0,0-2.21327,6.26038ZM109.5662,74.8671H91.48063a9.78157,9.78157,0,0,0,2.27651,6.63981,7.81833,7.81833,0,0,0,6.07068,2.33974,12.55894,12.55894,0,0,0,7.96777-2.84563v3.85741a14.88071,14.88071,0,0,1-8.91632,2.46621,10.83647,10.83647,0,0,1-8.53689-3.478c-2.0868-2.33974-3.09857-5.628-3.09857-9.80162a13.86022,13.86022,0,0,1,3.41475-9.73838A10.84233,10.84233,0,0,1,99.069,60.51247a9.51436,9.51436,0,0,1,7.77806,3.28829c1.83385,2.15,2.7824,5.18537,2.7824,9.04278l-.06324,2.02356Zm-4.23683-3.478a8.24987,8.24987,0,0,0-1.70738-5.56479A5.84523,5.84523,0,0,0,98.94251,63.864a6.545,6.545,0,0,0-4.93243,2.08679,9.70865,9.70865,0,0,0-2.52945,5.43832Zm6.26039,14.03844V82.58192a14.465,14.465,0,0,0,7.8413,2.46622c2.78238,0,4.93242-.56913,6.38686-1.77062a5.906,5.906,0,0,0,2.15-4.86919,6.66,6.66,0,0,0-1.45444-4.42654,29.51807,29.51807,0,0,0-6.32363-4.48977c-3.66769-2.15-5.9442-3.92065-6.89274-5.31184a8.8554,8.8554,0,0,1-1.45444-4.93243,8.40563,8.40563,0,0,1,2.9721-6.4501,11.3842,11.3842,0,0,1,7.90454-2.65592,20.20683,20.20683,0,0,1,6.38686,1.075v2.59268a16.24963,16.24963,0,0,0-6.76628-1.45443,8.781,8.781,0,0,0-5.81773,1.83385,5.87236,5.87236,0,0,0-2.15,4.67948,6.37293,6.37293,0,0,0,1.45443,4.3633,27.73457,27.73457,0,0,0,6.32363,4.42654c3.35152,1.89709,5.56479,3.60447,6.703,5.0589a8.01913,8.01913,0,0,1,1.64415,5.12214,8.78706,8.78706,0,0,1-2.84564,6.76627c-1.89708,1.77062-4.61624,2.59269-8.09423,2.59269a19.1743,19.1743,0,0,1-4.30007-.56913,13.00051,13.00051,0,0,1-3.6677-1.20149Zm40.28149.12648a13.054,13.054,0,0,1-6.82952,1.77061,10.85667,10.85667,0,0,1-8.47365-3.60446A13.52535,13.52535,0,0,1,133.343,74.298a14.15253,14.15253,0,0,1,3.60446-9.99133,12.126,12.126,0,0,1,9.29574-3.92065,13.73558,13.73558,0,0,1,5.69125,1.20149v2.59269A11.22733,11.22733,0,0,0,145.927,62.4728a9.27393,9.27393,0,0,0-7.33541,3.22505,12.28264,12.28264,0,0,0-2.78239,8.41042,12.01238,12.01238,0,0,0,2.59268,8.031,8.44516,8.44516,0,0,0,6.76628,3.03534,11.3658,11.3658,0,0,0,6.703-2.02356v2.403Zm15.30317-22.13269a4.34161,4.34161,0,0,0-2.71916-.82207c-2.02357,0-3.73094,1.075-5.0589,3.16181-1.3912,2.0868-2.02356,5.0589-2.02356,8.91631V86.75552h-2.2765V61.01837h2.2765v5.69126h.12647a9.16575,9.16575,0,0,1,2.78239-4.553,6.61463,6.61463,0,0,1,4.42655-1.64415,6.23772,6.23772,0,0,1,2.52944.44266v2.46621Zm3.6677-8.85307a1.82,1.82,0,0,1-1.328-.56913,1.85927,1.85927,0,0,1-.56913-1.3912,1.63325,1.63325,0,0,1,.56913-1.328,2.04077,2.04077,0,0,1,1.328-.50589,2.35,2.35,0,0,1,1.39119.50589,1.63325,1.63325,0,0,1,.56913,1.328,1.96171,1.96171,0,0,1-.56913,1.3912A2.07462,2.07462,0,0,1,170.84212,54.56827Zm-1.13825,32.124V61.01837h2.2765V86.69228Zm10.181-4.553h-.12648V98.51746h-2.27651V61.01837h2.27651v5.31184h.12648a10.1338,10.1338,0,0,1,3.92064-4.3633,10.8912,10.8912,0,0,1,5.628-1.51767,9.38571,9.38571,0,0,1,7.65159,3.35152c1.83385,2.2765,2.71916,5.31184,2.71916,9.16925,0,4.30007-1.075,7.77806-3.16181,10.434a10.04279,10.04279,0,0,1-8.284,3.98388A9.15263,9.15263,0,0,1,179.88491,82.13927Zm-.12648-9.54867v3.22505a9.84981,9.84981,0,0,0,2.403,6.6398,8.14582,8.14582,0,0,0,6.38685,2.78239,7.67155,7.67155,0,0,0,6.38686-3.35152,14.67793,14.67793,0,0,0,2.46622-8.85307,11.8628,11.8628,0,0,0-2.2765-7.65158,7.26024,7.26024,0,0,0-6.00745-2.84564,8.48317,8.48317,0,0,0-6.956,3.03534A10.63545,10.63545,0,0,0,179.75843,72.5906Zm34.0211,13.72226a7.87915,7.87915,0,0,1-3.35152.82207q-5.69127,0-5.69127-6.82951V63.1684H200.1205V61.0816h4.61624v-6.703l1.13825-.37942,1.13825-.37942V61.0816h6.76629v2.0868h-6.76629V80.11571a6.85928,6.85928,0,0,0,.82208,3.85741,3.19665,3.19665,0,0,0,2.84563,1.20149,6.43279,6.43279,0,0,0,3.09858-.94854v2.08679Z" style="fill:#2178bd"/></g></svg>