<svg id="bd007def-0b93-43c8-9b04-500fe810d01e" data-name="Visual Studio Logo" xmlns="http://www.w3.org/2000/svg" viewBox="0 0 226.77165 141.73228"><title>Visual Studio</title><g id="e25ce4c7-b54e-48fd-ad05-6cb48fd7735c" data-name="katman 2"><path d="M178.34923,25.64082a7.13657,7.13657,0,0,0-4.48165-6.62412L150.80365,9.77105a7.13493,7.13493,0,0,0-7.6347,1.51177L97.56032,55.69728,71.9228,36.18146a7.13731,7.13731,0,0,0-7.52979-.69708l-6.60568,3.32189a7.13687,7.13687,0,0,0-3.93045,6.375l-.01025,54.124a7.1376,7.1376,0,0,0,3.93742,6.38151l6.54954,3.285a7.13791,7.13791,0,0,0,7.52282-.70077L97.47508,88.7691l45.73239,44.38618a7.13638,7.13638,0,0,0,7.61913,1.50563l23.04426-9.20836a7.13692,7.13692,0,0,0,4.489-6.62821Zm-50.35952,46.527L137.21692,65.27l.00328,13.84983Z" style="fill:#fff;stroke:#682579;stroke-miterlimit:10;stroke-width:0.8392844200134277px"/></g><g id="ab8bacf9-06a5-484b-bf49-71798c50dd31" data-name="katman 1"><path d="M171.21226,25.64144l-23.064-9.24549L98.13238,65.10274,67.59985,41.86042l-6.60563,3.32214-.01043,54.12413L67.5332,102.592,98.039,79.37024l50.13954,48.66328,23.04414-9.2086-.01043-93.18348ZM70.88638,84.94328l-.01679-25.40341,14.13166,12.616L70.88638,84.94328Zm45.21139-12.79685,28.25264-21.12066.01119,42.40668-28.26383-21.286Z" style="fill:#682579"/></g></svg>