<svg xmlns="http://www.w3.org/2000/svg" viewBox="0 0 226.77165 141.73228"><title>vueJs</title><g id="f940e3bc-ed52-4010-80f7-5360ac20eb61" data-name="VueJs"><g id="e1adc72a-7c1a-4bd0-b80d-952f7c3cbc07" data-name="katman 23"><path d="M193.32111,8.25292a7.73359,7.73359,0,0,0-6.70089-3.8731H134.17746A7.735,7.735,0,0,0,127.473,8.25825l-9.03221,15.70823-9.26534-15.7704a7.73379,7.73379,0,0,0-6.668-3.81626H50.40528A7.73382,7.73382,0,0,0,43.7146,15.992l68.10748,117.48532a7.73326,7.73326,0,0,0,13.38134,0L193.31089,15.992A7.731,7.731,0,0,0,193.32111,8.25292Z" style="fill:#fff;stroke:#364a5e;stroke-miterlimit:10;stroke-width:0.9094377160072327px"/></g><path d="M159.37719,12.11371h27.243L118.51264,129.59928,50.40507,12.11371h52.10229l16.00528,27.243,15.66475-27.243Z" style="fill:#4ab382"/><path d="M50.40507,12.11371l68.10757,117.48557L186.62022,12.11371h-27.243L118.51264,82.60505,77.30756,12.11371Z" style="fill:#4ab382"/><path d="M77.30756,12.11371l41.20508,70.83187,40.86455-70.83187h-25.1998l-15.66475,27.243-16.00528-27.243Z" style="fill:#364a5e"/></g></svg>