<svg xmlns="http://www.w3.org/2000/svg" viewBox="0 0 226.77165 141.73228"><title>Yerli Üretim</title><g id="aebbd678-caa7-48d4-99c2-3ef4bb189741" data-name="Yeli Üretim"><g id="beaf808d-7ae1-432a-929b-500b55e1b3d5" data-name="katman 40"><path d="M219.39842,41.86291c0-1.05665.01171-4.87387.01171-4.87387a8.74823,8.74823,0,0,0-2.50906-6.44384,8.66035,8.66035,0,0,0-6.37078-2.517s-.98592.00749-1.37467.00749L69.25335,28.031l-13.95323.00843a9.5567,9.5567,0,0,0-6.3408,2.35965c-.67164.58265-1.35593,1.14938-2.04022,1.71611l-.94377.785-8.59975,7.19511c-1.63836,1.36857-3.27625,2.73715-4.923,4.08419a9.26447,9.26447,0,0,0-3.4444,7.38339c.01593,2.15544.0164,4.31182.01359,6.4682A9.46348,9.46348,0,0,0,26.3,59.2254L23.40409,55.929c-.14238-.16206-.28945-.31943-.43746-.47586l-.06744-.07213a8.15754,8.15754,0,0,0-7.70048-2.39712l-.18032.04028A8.15653,8.15653,0,0,0,8.60405,60.9284l-.00843,1.125-.03044,50.27583a8.46327,8.46327,0,0,0,8.65361,8.65268h.00609c.32364,0,.64729-.0075.97093-.01686.17611-.00469.35222-.01031.52926-.01031l173.18234-.00281q6.25555,0,12.51065.015l6.26633.01031a8.55374,8.55374,0,0,0,8.72433-8.74167c.00047-.26885-.01171-1.32081-.01171-1.32081Z" style="fill:#fff;stroke:#e30613;stroke-miterlimit:10;stroke-width:0.9592228278413302px"/></g><g id="fc35d184-18ee-4dd1-8ffd-66a0787dbd63" data-name="katman 39"><path d="M16.94111,60.95244c.11472.12345.23248.24422.34369.37074q2.19258,2.49438,4.384,4.98977,1.63439,1.85658,3.27633,3.7065c.43022.48493.43314.48017.90614.08609q2.30028-1.91642,4.60234-3.83073a1.24962,1.24962,0,0,1,1.12435-.35674,6.20231,6.20231,0,0,0,1.23132-.00171c2.69471-.01141,5.38945-.01675,8.0841-.03573a.601.601,0,0,1,.65927.485c.46595,1.44549.94849,2.88568,1.43255,4.32525a7.15327,7.15327,0,0,0,.4274,1.08812,1.23665,1.23665,0,0,0,.50054.47538c.88312.46179,1.78083.89576,2.67477,1.33672.544.26831,1.08645.54032,1.6378.79276a1.00882,1.00882,0,0,1,.58443.72273c.3607,1.34159.76663,2.67127,1.1123,4.01655A1.93189,1.93189,0,0,0,51.095,80.5447c1.30533.58359,2.55457,1.29143,3.847,1.90575a1.21639,1.21639,0,0,1,.67869.8808c.368,1.33839.785,2.66487,1.10249,4.01489a1.82336,1.82336,0,0,0,1.02559,1.24673q1.48854.80793,2.97784,1.61444c.19048.10349.36974.23124.56766.31648a3.08224,3.08224,0,0,0,.851.29987c.90669.09489,1.81817.14758,2.72874.20032.439.02542.49352-.0307.54656-.44719.10695-.83993.19019-1.68341.32029-2.51966a1.02684,1.02684,0,0,0-.24793-.89716c-.646-.75835-1.278-1.52874-1.91511-2.2947-1.17994-1.41851-2.35339-2.84248-3.54119-4.25438-1.15818-1.37668-2.33743-2.73563-3.49523-4.11262-.949-1.12864-1.87759-2.27441-2.82034-3.40834-.36081-.434-.75369-.84231-1.09866-1.28809-.27438-.35455-.2199-.44712.13243-.7361q1.60961-1.32022,3.19622-2.66831c.40085-.34246.45393-.36233.81886.07155q1.84449,2.193,3.68368,4.39042Q63.324,76.271,66.19766,79.67976c1.06048,1.264,2.125,2.52546,3.15048,3.81757a1.77137,1.77137,0,0,0,1.43819.72968q1.13991.02679,2.27922.07672c.28357.01265.38919-.12914.41377-.3829.04817-.49737.10051-.99432.15155-1.4914a2.5603,2.5603,0,0,1,.07635-.64533,1.54789,1.54789,0,0,0-.449-1.69791q-1.96277-2.26128-3.87375-4.56742c-1.69528-2.03286-3.36956-4.08321-5.06286-6.11773-1.13751-1.36673-2.29323-2.7183-3.43838-4.07869-.15082-.17916-.28724-.37043-.483-.62441l4.05683-3.402c.45033.53493.864,1.02577,1.2771,1.51717q2.42867,2.8893,4.856,5.7797c1.15658,1.38171,2.30168,2.773,3.45643,4.15626,1.11158,1.33154,2.25823,2.63524,3.329,3.99864a1.66687,1.66687,0,0,0,1.49475.6846c.71554-.01282,1.43327.042,2.14845.09083.29819.02037.45711-.08585.49817-.37327.129-.90288.27516-1.80413.36745-2.71082a1.01361,1.01361,0,0,0-.23941-.639c-.561-.71835-1.148-1.41661-1.73268-2.11619q-2.94409-3.5226-5.89257-7.04152C72.19727,62.46,70.38559,60.26858,68.55857,58.09c-1.33866-1.59622-2.70087-3.17272-4.03612-4.77175a.88535.88535,0,0,0-.77793-.35109c-1.15152.02-2.30358.011-3.45543.00857a1.51036,1.51036,0,0,0-1.05306.3921c-2.487,2.10144-5.00406,4.16733-7.50912,6.24746-.35087.29136-.68883.59835-1.03071.90043a1.3643,1.3643,0,0,1-.9569.33642q-5.02045-.01681-10.041-.01708c-.65146-.0004-1.303.02463-1.95439.02271-.52093-.00153-.57026-.08721-.56916-.61757.00608-2.91217.01171-5.82444-.00959-8.73648a1.14349,1.14349,0,0,1,.44626-1.00633c1.71333-1.40085,3.41137-2.8205,5.11-4.23929q4.24683-3.54723,8.48808-7.10115c1.0321-.86329,2.0763-1.71254,3.09278-2.59381a1.40791,1.40791,0,0,1,.99774-.36658c4.65116.00466,9.30234-.008,13.95351-.00811q68.856-.00159,137.712-.0005c1.15174,0,2.30358.0119,3.45514-.00155.75307-.0088.83391.05057.83232.78682-.00352,1.63-.01155,3.26008-.01163,4.89012q-.00194,34.52579-.00146,69.05157c0,.43426.0128.86854.01176,1.3028-.00108.45311-.14332.6025-.56741.60194q-9.38849-.01233-18.777-.025-54.18492-.00371-108.36982-.00114-32.40662.00036-64.81323.00387c-.49972.00005-.99943.02712-1.49915.02757-.41074.00037-.50283-.09627-.50259-.49539q.01051-17.21334.02238-34.4267.005-7.92233.0081-15.84465c.0002-.355.00508-.7099.00778-1.06485ZM131.3747,41.51881q-21.77707,0-43.55414.00058-15.19106.00239-30.38208.00846a1.09685,1.09685,0,0,0-.765.27751c-1.47261,1.24723-2.95647,2.48121-4.43945,3.71617q-4.32776,3.604-8.65825,7.20466c-.95755.79711-.9563.79861-.92438,2.07994.01581.63407.03053.6518.661.66429.3476.00689.69545.004,1.04317.00263,1.08632-.00414,2.17715-.07077,3.25726.00869a1.95887,1.95887,0,0,0,1.52215-.53722c1.34148-1.13621,2.70344-2.24819,4.051-3.3773q2.09679-1.7569,4.17877-3.53143a1.828,1.828,0,0,1,1.29438-.47336q3.65073.03921,7.30215-.01027a1.28406,1.28406,0,0,1,1.1099.5182c1.34512,1.6188,2.72087,3.2121,4.07112,4.82669,1.587,1.89769,3.15279,3.81314,4.73956,5.71105,1.44649,1.73012,2.91325,3.44329,4.36292,5.17078,1.89746,2.26109,3.77261,4.54106,5.68533,6.78912,1.08831,1.27912,1.11185,1.25776,1.11178,2.95232q-.00064,16.072-.0001,32.144c0,.41293-.01035.82613.00125,1.23873.012.42757.08651.49754.48942.50744q.488.012.97628.01195,45.64047-.00006,91.28093-.00142,12.58371-.00045,25.16742-.00635c.80867-.00039.94768.205.94733-.98073q-.00759-25.26525-.00213-50.5305-.00048-6.87807-.01812-13.75612c-.001-.57588-.04516-.6125-.63693-.62777-.08687-.00224-.17386.0002-.26079.0002Q168.18056,41.51975,131.3747,41.51881ZM32.17957,85.33515c.17852.6172.36815,1.1293.469,1.65833a1.41861,1.41861,0,0,0,1.06923,1.30118,1.991,1.991,0,0,1,.81522.38746c.73562.65211,1.2553.2323,1.83437-.2569q4.04676-3.41883,8.12608-6.79907a.65474.65474,0,0,0,.28643-.72741c-.17692-.67094-.35119-1.3426-.53272-2.01229a.79773.79773,0,0,0-.49871-.55733c-.39924-.16567-.78561-.36289-1.17492-.55192-.99919-.48518-.99884-.48657-1.843.21809q-2.49539,2.083-4.99,4.167c-1.06408.89021-2.12882,1.77974-3.1825,2.68215A2.783,2.783,0,0,0,32.17957,85.33515Zm9.81341,11.721a2.726,2.726,0,0,0,.37-.21987c.41857-.343.82695-.69834,1.24167-1.04606q3.23779-2.7147,6.477-5.42776c.38174-.31983.75733-.64764,1.14991-.95361a.52535.52535,0,0,0,.20291-.62486c-.16442-.58338-.32946-1.1672-.46883-1.75684a1.08771,1.08771,0,0,0-.66829-.81457c-.5756-.24863-1.14952-.506-1.70233-.80061a.582.582,0,0,0-.75658.09018c-.8841.7651-1.77908,1.51778-2.67617,2.26769-.98.81921-1.96845,1.62836-2.9505,2.44516q-1.5727,1.30809-3.14109,2.62138a.50435.50435,0,0,0-.19513.61811c.193.59764.34376,1.20952.49567,1.81958a.9991.9991,0,0,0,.56535.73733c.60687.28577,1.19562.61,1.79227.91758C41.8047,96.96812,41.8827,97.00322,41.993,97.05615Zm16.10831-.1408c-.23561-.85944-.4398-1.65817-.68472-2.44423-.04046-.12985-.24838-.22595-.39755-.3002-.56386-.28067-1.14458-.5286-1.70066-.82337a.69061.69061,0,0,0-.8807.09851c-1.2099,1.01993-2.44325,2.012-3.658,3.02629-1.68294,1.40527-3.35235,2.82679-5.04027,4.226a.53574.53574,0,0,0-.2336.61c.115.4405.24645.87813.33273,1.32437a1.70535,1.70535,0,0,0,1.223,1.51174,3.04379,3.04379,0,0,1,.86661.4446c.60461.42088,1.05061.18315,1.54067-.23873,1.46376-1.26,2.9572-2.48561,4.43925-3.7244,1.26485-1.05724,2.53388-2.10955,3.79037-3.17663A2.95692,2.95692,0,0,0,58.10129,96.91535ZM38.249,73.20859c-.24334-.84962-.45463-1.62332-.69059-2.38941-.07126-.23134-.29209-.19483-.49575-.19386-1.0193.00489-2.03907-.02386-3.05777-.00081a1.49082,1.49082,0,0,0-.77155.25247c-.426.29464-.80645.655-1.20682.98687q-3.02688,2.5091-6.05451,5.0173c-.4363.3614-.45489.41089-.29653.94155.18567.62223.35751,1.24952.573,1.86134a.91916.91916,0,0,0,.39293.46216c.55147.29981,1.13641.5379,1.68919.83555a.766.766,0,0,0,.987-.138c1.63537-1.38737,3.299-2.74135,4.94437-4.117q1.82148-1.52293,3.61988-3.07336A3.12244,3.12244,0,0,0,38.249,73.20859Z" style="fill:#e30613"/><path d="M193.08179,91.90475c-.29755.49666-.59837.9914-.89205,1.49034q-1.18881,2.01977-2.37445,4.04142c-.07684.13034-.17782.24644-.26741.36928-.45087.61816-1.06386.67611-1.58509-.0784-.554-.802-1.01738-1.66656-1.52193-2.50283-.5041-.83554-1.01237-1.66858-1.51417-2.50549a3.44174,3.44174,0,0,0-.61148-.84034,2.59736,2.59736,0,0,0-.06374.40853q.00161,4.104.01,8.20792a5.11331,5.11331,0,0,1-.04293.779c-.08686.56447-.33327.83342-.89693.84235q-2.21533.03507-4.43163-.00949c-.52159-.00974-.87652-.4768-.88892-1.09668-.01565-.78164-.00462-1.56381-.00551-2.34575q-.00887-7.7902-.01481-15.58041a6.14165,6.14165,0,0,1,.07482-1.03745c.10353-.60266.37064-.847.96421-.85178,1.38973-.01114,2.77966.00639,4.16952.00839a1.16719,1.16719,0,0,1,1.03987.56151c.222.34675.4189.70958.62827,1.06448.8927,1.51333,1.7892,3.02444,2.67721,4.54052.2962.50572.56808,1.02564.85769,1.53532.09165.16135.20474.31052.34209.51628a3.10754,3.10754,0,0,0,.33779-.38528c.48581-.8205.96112-1.64721,1.442-2.47063.393-.67288.791-1.34287,1.18324-2.01617.51311-.88065,1.032-1.75813,1.53015-2.64723a1.27208,1.27208,0,0,1,1.1631-.69672c1.34651-.023,2.69327-.05017,4.03979-.04444a.98913.98913,0,0,1,1.1139,1.0715c.03095.67233.02429,1.34663.02483,2.02007q.00633,7.92083.0078,15.84164c.00007.3475.0008.69643-.02836,1.0422a.91789.91789,0,0,1-.99016.977c-1.43347.02734-2.86786.028-4.30155.01257a.94543.94543,0,0,1-.95429-.88361,5.06269,5.06269,0,0,1-.03173-.65015q-.009-4.1068-.01511-8.2136c-.00031-.14421-.02231-.28836-.03424-.43254Z" style="fill:#e30613"/><path d="M120.29471,95.95136c-.02.205-.05741.40973-.05728.61445.00086,1.38963.01585,2.7793.01017,4.16889a2.154,2.154,0,0,1-.12556.75725.99912.99912,0,0,1-1.01864.66407c-1.38891-.007-2.77821-.02623-4.16667-.00166A1.17335,1.17335,0,0,1,113.726,100.8c.03316-1.14984.02934-2.301.02946-3.45151q.00081-7.46032-.00463-14.92067c-.00006-.86608.34819-1.246,1.22218-1.24513,2.9748.00291,5.95071-.014,8.9239.06376A9.59591,9.59591,0,0,1,128.04,82.26122a5.233,5.233,0,0,1,2.64843,2.74713,9.44111,9.44111,0,0,1,.326,6.12416,5.56944,5.56944,0,0,1-2.56244,3.32065c-.91481.56139-.83554.47777-.3397,1.31646.894,1.51219,1.82015,3.00535,2.727,4.51a6.3787,6.3787,0,0,1,.41964.8068.71807.71807,0,0,1-.54053,1.03573,1.701,1.701,0,0,1-.38839.03046c-1.34649.003-2.693.01075-4.03945.00127a1.82245,1.82245,0,0,1-1.65284-.976q-.97211-1.694-1.92959-3.3964c-.2664-.47142-.52956-.94485-.78408-1.42276a.6688.6688,0,0,0-.78621-.41583A5.0889,5.0889,0,0,1,120.29471,95.95136Zm-.00516-5.14955c.40661.00477.78819.02107,1.16908.011a16.59855,16.59855,0,0,0,1.88128-.08889,1.62288,1.62288,0,0,0,1.43758-1.3177,3.23474,3.23474,0,0,0-.10192-1.79738,1.28185,1.28185,0,0,0-.913-.841,13.84245,13.84245,0,0,0-3.473-.17759Z" style="fill:#e30613"/><path d="M132.1387,61.74138q0-4.3017-.0007-8.60338a7.081,7.081,0,0,1-.00772-.90843.9519.9519,0,0,1,1.07679-.97042c.58618-.01811,1.17305-.01991,1.7596-.018,2.25926.00729,4.51933-.01435,6.77751.04024a11.293,11.293,0,0,1,4.66679,1.06017,5.10287,5.10287,0,0,1,2.65986,2.82094,9.28712,9.28712,0,0,1,.384,5.68324,5.98415,5.98415,0,0,1-2.94679,3.87251c-.51741.30179-.51817.35236-.21274.85086q1.5309,2.49864,3.05249,5.003c.23654.39.5127.801.22927,1.26936-.26711.4414-.72811.38332-1.16957.38084-1.15092-.00648-2.30261-.01022-3.45276.0249a2.00441,2.00441,0,0,1-1.998-1.06566c-.846-1.51513-1.72211-3.01338-2.57158-4.52659a1.20361,1.20361,0,0,0-1.56092-.62842.53828.53828,0,0,0-.21852.4094c-.02577.54195-.01129,1.08583-.01114,1.629.00024.956.00907,1.912-.00072,2.86784-.00941.91753-.34868,1.27561-1.26067,1.28808-1.39011.019-2.7807.01542-4.171.00682a.96035.96035,0,0,1-1.006-.906,4.99721,4.99721,0,0,1-.01863-.65081q-.00147-4.46473-.00065-8.92946Zm6.45777-2.999h-.02079c0,.5646.00643,1.12932-.00269,1.69378-.00466.28877.0991.46989.40547.46125.91027-.02566,1.82431-.01836,2.7291-.105A1.42226,1.42226,0,0,0,143.091,59.477a5.21531,5.21531,0,0,0-.03347-1.67545,1.23525,1.23525,0,0,0-1.019-.97063,11.65434,11.65434,0,0,0-2.97588-.18574c-.34674.00321-.46783.153-.46666.46811C138.59794,57.65631,138.59647,58.19934,138.59647,58.74237Z" style="fill:#e30613"/><path d="M110.874,88.90689c0,1.69469.011,3.38947-.0052,5.084a16.05116,16.05116,0,0,1-.11956,2.145,6.87791,6.87791,0,0,1-2.24363,4.426,7.372,7.372,0,0,1-2.5072,1.32984,12.68144,12.68144,0,0,1-4.81592.53469,9.6812,9.6812,0,0,1-4.48886-1.1856,6.18671,6.18671,0,0,1-2.33533-2.38615,8.49666,8.49666,0,0,1-1.00456-4.13187c-.0322-3.715-.0201-7.43032-.02364-11.14551-.00045-.4775-.01822-.95769.02487-1.43183.05514-.60679.29339-.82922.896-.93564a1.87629,1.87629,0,0,1,.32376-.03087c1.412-.00058,2.824-.00679,4.23584.00712a.92482.92482,0,0,1,1.00616.82842A5.44655,5.44655,0,0,1,99.897,83.1143c.00093,3.69319-.02165,7.38649.00341,11.07947a2.51252,2.51252,0,0,0,.72691,2.02342,1.69875,1.69875,0,0,0,.54316.33027,3.08941,3.08941,0,0,0,1.92384-.01077,1.29684,1.29684,0,0,0,.91651-.85937,6.74847,6.74847,0,0,0,.36849-1.76976c.03345-3.73669.01709-7.47381.01917-11.21079a4.965,4.965,0,0,1,.03023-.64954.8562.8562,0,0,1,.93452-.8765c.54146-.02726,1.08522-.00949,1.628-.00974.88953-.00041,1.77923-.0087,2.66848.00748a2.37118,2.37118,0,0,1,.6954.13828.62833.62833,0,0,1,.47077.62948c.01073.75931.04432,1.51841.04815,2.27769.00788,1.56429.00236,3.12865.00236,4.693Z" style="fill:#e30613"/><path d="M140.13043,88.90562c.26511.02213.47424.05393.68353.05479q2.67247.01106,5.345.01262c.26073.00052.52214-.00959.782.00569.56647.03333.80441.22783.81638.79957.02453,1.17232.01506,2.34612-.01462,3.51844-.01251.49456-.41377.79114-1.00078.80315-.56439.01155-1.12916.00417-1.69378.00343q-2.18327-.00283-4.3665-.00694c-.482-.00063-.54147.06348-.54206.574q-.00084.7493-.0017,1.49861c.00016.48771.05995.55357.56935.55371q3.22667.0009,6.4533-.00764c.9136-.00215,1.30509.39989,1.29125,1.297-.0144.93376-.03,1.86892.00478,2.80161a1.17132,1.17132,0,0,1-1.33341,1.34354c-3.71524-.03609-7.43108-.01311-11.14669-.01279-.41273,0-.827.01044-1.23783-.02044-.65973-.0496-.87766-.26427-.94553-.92764a10.27379,10.27379,0,0,1-.02612-1.042q-.00087-6.84463.00091-13.68929c-.00036-1.36839-.00989-2.73679-.01567-4.10518-.00317-.751.25777-1.05188,1.02688-1.14109a9.75564,9.75564,0,0,1,1.10324-.06461q5.50813-.01059,11.01627-.00985c.13032-.00006.26121.00015.39085.01144a.93892.93892,0,0,1,.9398.94973q.03785,1.72659.02178,3.4542a.87448.87448,0,0,1-.90664.98109c-.60431.04787-1.21428.03089-1.82178.03066-1.32543-.00052-2.65088-.01052-3.97631-.0117-.28209-.00025-.56482.01248-.84619.03346-.5056.03772-.56078.09153-.56783.57938C140.12422,87.73125,140.13043,88.29,140.13043,88.90562Z" style="fill:#e30613"/><path d="M121.44029,58.99337c.249.01965.50164.0559.75444.0569,1.75941.007,3.51884.00643,5.27827.00907.2389.00036.4786-.00639.71654.01026a.73843.73843,0,0,1,.79456.76675c.03512.41017.02734.82457.02716,1.23709-.00031.71648.011,1.43386-.02082,2.14916-.02956.66448-.30829.932-.98609.93888-1.71576.01749-3.43175.01131-5.14765.01439-.34748.00062-.695.00477-1.04242-.001-.30266-.005-.43141.14239-.42985.43745.003.56469-.01461,1.12974-.00005,1.694.01068.4139.074.46928.52066.47331,1.08592.0098,2.172.00619,3.25795.00731,1.04262.00107,2.08526-.00342,3.12781.00544a2.56991,2.56991,0,0,1,.705.08274.80506.80506,0,0,1,.63956.80467c.008,1.21564.02875,2.43177.00328,3.64684-.01229.58609-.33729.86006-.99777.88465-.846.03148-1.69366.026-2.54059.02641q-4.8544.0025-9.7088-.00585a1.87729,1.87729,0,0,1-.82479-.11179,1.098,1.098,0,0,1-.59377-1.06746q.01514-8.8296-.00156-17.65927c-.00018-.304-.00876-.60831-.00047-.91212.02415-.88414.35162-1.21941,1.23663-1.22469q3.32326-.01983,6.64666-.01782,2.574-.00231,5.148.00843a3.49361,3.49361,0,0,1,.6486.03961c.55685.10769.81027.35046.82668.91725.03391,1.17159.04261,2.34527.01238,3.51681-.01586.6144-.44631.91748-1.188.92455-.86844.00828-1.737.00024-2.60556.001-1.23811.001-2.47627-.00213-3.71431.00817-.56179.00467-.586.03831-.59657.59433q-.01357.716-.011,1.43229A1.8272,1.8272,0,0,0,121.44029,58.99337Z" style="fill:#e30613"/><path d="M103.24847,59.32119c.11316-.23253.19775-.37182.25158-.52212.806-2.25038,1.85153-4.39743,2.83034-6.57326a1.50105,1.50105,0,0,1,1.47517-.97331c1.4559.00359,2.91208-.01648,4.36762.0064a.858.858,0,0,1,.834,1.2617,8.45773,8.45773,0,0,1-.51939.97623q-1.56588,2.853-3.133,5.70525c-.89535,1.63168-1.79795,3.25951-2.67391,4.90156a1.80642,1.80642,0,0,0-.16457.81162c-.01334,1.89067-.00626,3.78147-.00668,5.67223,0,.19553.0045.39194-.01151.58642a1.00355,1.00355,0,0,1-1.09228,1.03467q-2.15085.034-4.3022.03153a1.03291,1.03291,0,0,1-1.11283-1.09491c-.01888-.95585-.00613-1.91232-.00682-2.86853-.00077-1.08665-.01133-2.17343.00343-3.25986a1.9002,1.9002,0,0,0-.25775-.98761c-1.04379-1.87817-2.073-3.76444-3.10363-5.64992q-1.56082-2.85555-3.11274-5.716a.87566.87566,0,0,1,.7907-1.407c1.49879-.03016,2.99874-.008,4.49816.00054a1.37586,1.37586,0,0,1,1.28795.85635c.76774,1.67585,1.50265,3.367,2.23236,5.05989.2402.55728.42083,1.14.64086,1.70637A3.04222,3.04222,0,0,0,103.24847,59.32119Z" style="fill:#e30613"/><path d="M161.363,86.96065c0,.4452.00016.83224,0,1.21927q-.00262,5.80288-.00568,11.60576c-.00025.41264-.00581.82527-.00817,1.23791a1.0263,1.0263,0,0,1-1.00979,1.11885c-1.54272.01923-3.0862.01035-4.62885-.01688-.52653-.0093-.87945-.46885-.88753-1.09339-.0107-.82559.00672-1.6515.00683-2.47728q.00069-5.70461-.00331-11.40919a.93083.93083,0,0,0-.06771-.19625,4.78837,4.78837,0,0,0-.5172-.05375c-.9991-.00549-1.99862.01468-2.99729-.00669-1.02813-.022-1.24148-.25041-1.255-1.29991-.01342-1.04306-.01245-2.08643-.005-3.12958.00677-.95486.29177-1.25256,1.25008-1.25949q4.23768-.03066,8.47556-.03468c1.76-.00241,3.52039-.00225,5.28.029.86615.01537,1.18981.314,1.22276,1.184.0444,1.17161.03461,2.34725-.00512,3.51935-.02418.7132-.41225,1.008-1.172,1.00939-1.02123.00191-2.04248-.00448-3.06367-.0008C161.78483,86.907,161.59792,86.93876,161.363,86.96065Z" style="fill:#e30613"/><path d="M152.09556,61.748c-.00048-3.01844.02115-6.0371-.01155-9.05519-.0124-1.14541.36648-1.47642,1.45983-1.45309,1.32393.02826,2.64871.01477,3.97306.0266.69564.00622.943.21108,1.03407.89564a7.96485,7.96485,0,0,1,.02963,1.038q.00586,5.92829.00813,11.85655c.00019.28136.01052.56291.00309.844-.013.49288.04494.56417.54225.56687,1.47634.008,2.95274.01046,4.4291.01578.5428.002,1.08635-.01065,1.62823.01324.62339.02749.92941.29959.94464.91855q.04639,1.88543.00989,3.77253a.983.983,0,0,1-1.03261,1.03039c-.32433.0239-.651.02152-.97662.021q-5.40675-.00862-10.81347-.02068c-.8681-.00173-1.22217-.33775-1.2243-1.21959C152.0915,67.91511,152.09605,64.83157,152.09556,61.748Z" style="fill:#e30613"/><path d="M175.20669,61.81876q0,4.596-.00242,9.192c-.00177.86351-.29909,1.1951-1.17007,1.20939-1.43335.02352-2.86789.01031-4.30127-.01883a.96127.96127,0,0,1-1.01857-1.02906c-.01832-.28152-.01309-.56478-.01294-.84725q.00432-8.76844.0105-17.53689c.00011-.1738-.002-.34809.00963-.5213a.97392.97392,0,0,1,.91268-.99641,4.22933,4.22933,0,0,1,.58511-.02805q1.89051-.00426,3.781-.003a1.075,1.075,0,0,1,1.223,1.12679c.02157.28073.00113.56464.00112.8471q-.00029,4.30277-.00011,8.60555Z" style="fill:#e30613"/><path d="M168.41431,91.62262q0-4.59547.00024-9.191c.00017-.90726.34131-1.26311,1.24327-1.26762,1.28184-.00639,2.56377.00078,3.84566.00469a3.606,3.606,0,0,1,.52.0268.89926.89926,0,0,1,.87341.88508,12.598,12.598,0,0,1,.04738,1.3009q.00429,8.73466.00164,17.46933c-.00015.91355-.34243,1.28134-1.24561,1.29232-1.3904.01692-2.7811.018-4.17161.01178a1.02629,1.02629,0,0,1-1.11147-1.14583q-.00627-4.69325-.00177-9.38649Z" style="fill:#e30613"/><path d="M171.9192,49.94727c-.58655,0-1.17353.01392-1.75957-.00347-.75736-.02246-1.03124-.27655-1.06077-1.01186-.027-.67207-.039-1.34746-.00447-2.01865.04839-.9408.21655-1.09458,1.14267-1.10926,1.021-.01618,2.04239-.00687,3.0636-.00794.21708-.00022.43583-.01409.65092.00738.60646.06053.90106.28777.94139.88133a23.06081,23.06081,0,0,1,.01751,2.47221c-.01852.46749-.4512.77332-1.03594.78965-.65131.01819-1.30352.00417-1.95534.00417Z" style="fill:#e30613"/><path d="M171.57959,75.73066c.652,0,1.30419-.00777,1.95609.00209.7161.01083,1.01949.32593,1.02217,1.04846.00256.69536.01336,1.39129-.01,2.08594-.02246.66843-.28955.95607-.95338.99058-.6937.03606-1.39041.01733-2.08581.01695-.58675-.00031-1.17387.00332-1.7601-.01656-.68257-.02315-1.00733-.32642-1.03137-.991-.02435-.6726-.02483-1.34752.003-2.01982a2.05,2.05,0,0,1,.20835-.738.61713.61713,0,0,1,.62992-.36905c.67331.01721,1.34736.00537,2.02112.00537Z" style="fill:#e30613"/><path d="M105.4939,76.18211c.543,0,1.08641-.01363,1.62883.00393a.762.762,0,0,1,.83075.79855c.03388.64936.03358,1.30224.01071,1.95228a.86733.86733,0,0,1-.86725.87278q-1.62785.02676-3.25651-.01526a.86162.86162,0,0,1-.91543-.90037,14.29885,14.29885,0,0,1-.02269-1.82168c.034-.63345.31558-.87466.963-.89362.54243-.01589,1.0857-.00326,1.6286-.00326Z" style="fill:#e30613"/><path d="M98.80887,76.17072c.49807,0,.99622-.00547,1.49421.00136.64763.00888.91435.1794.96856.79727a12.2455,12.2455,0,0,1-.01334,2.067.752.752,0,0,1-.818.76139c-1.12452.03121-2.25114.02057-3.3759-.00983a.72715.72715,0,0,1-.74334-.69285,13.9615,13.9615,0,0,1-.017-2.19479c.05355-.58047.32874-.73283.94663-.738.51934-.0043,1.03876-.00088,1.55814-.00088Z" style="fill:#e30613"/></g></g></svg>